<svg width="20" height="20" viewBox="0 0 20 20" fill="none" xmlns="http://www.w3.org/2000/svg">
<g clip-path="url(#clip0_735_3558)">
<path d="M2.5 16.6668L3.58333 13.4168C2.64704 12.032 2.30833 10.3922 2.63018 8.80207C2.95204 7.21197 3.91255 5.77987 5.33314 4.77204C6.75373 3.76421 8.53772 3.24923 10.3534 3.32285C12.1691 3.39647 13.8929 4.05368 15.2044 5.17228C16.5159 6.29089 17.3257 7.79477 17.4834 9.4043C17.6411 11.0138 17.1358 12.6195 16.0616 13.9228C14.9873 15.226 13.4172 16.1382 11.6432 16.4896C9.86911 16.8411 8.01184 16.6079 6.41667 15.8335L2.5 16.6668" stroke="#5478F9" stroke-width="1.45833" stroke-linecap="round" stroke-linejoin="round"/>
<path d="M10 10V10.0083" stroke="#5478F9" stroke-width="1.45833" stroke-linecap="round" stroke-linejoin="round"/>
<path d="M6.66675 10V10.0083" stroke="#5478F9" stroke-width="1.45833" stroke-linecap="round" stroke-linejoin="round"/>
<path d="M13.3333 10V10.0083" stroke="#5478F9" stroke-width="1.45833" stroke-linecap="round" stroke-linejoin="round"/>
</g>
<defs>
<clipPath id="clip0_735_3558">
<rect width="20" height="20" fill="white"/>
</clipPath>
</defs>
</svg>
