<svg width="20" height="20" viewBox="0 0 20 20" fill="none" xmlns="http://www.w3.org/2000/svg">
<g clip-path="url(#clip0_958_12009)">
<path d="M5.83333 9.16658V15.8333C5.83333 16.0543 5.74554 16.2662 5.58926 16.4225C5.43298 16.5788 5.22101 16.6666 5 16.6666H3.33333C3.11232 16.6666 2.90036 16.5788 2.74408 16.4225C2.5878 16.2662 2.5 16.0543 2.5 15.8333V9.99992C2.5 9.7789 2.5878 9.56694 2.74408 9.41066C2.90036 9.25438 3.11232 9.16658 3.33333 9.16658H5.83333C6.71739 9.16658 7.56523 8.8154 8.19036 8.19027C8.81548 7.56515 9.16667 6.71731 9.16667 5.83325V4.99992C9.16667 4.55789 9.34226 4.13397 9.65482 3.82141C9.96738 3.50885 10.3913 3.33325 10.8333 3.33325C11.2754 3.33325 11.6993 3.50885 12.0118 3.82141C12.3244 4.13397 12.5 4.55789 12.5 4.99992V9.16658H15C15.442 9.16658 15.8659 9.34218 16.1785 9.65474C16.4911 9.9673 16.6667 10.3912 16.6667 10.8333L15.8333 14.9999C15.7135 15.5111 15.4861 15.9501 15.1855 16.2507C14.8849 16.5513 14.5274 16.6973 14.1667 16.6666H8.33333C7.67029 16.6666 7.03441 16.4032 6.56557 15.9344C6.09673 15.4655 5.83333 14.8296 5.83333 14.1666" fill="#3C68FF" fill-opacity="0.3"/>
<path d="M5.83333 9.16659V15.8333C5.83333 16.0543 5.74554 16.2662 5.58926 16.4225C5.43298 16.5788 5.22101 16.6666 5 16.6666H3.33333C3.11232 16.6666 2.90036 16.5788 2.74408 16.4225C2.5878 16.2662 2.5 16.0543 2.5 15.8333V9.99992C2.5 9.7789 2.5878 9.56694 2.74408 9.41066C2.90036 9.25438 3.11232 9.16659 3.33333 9.16659H5.83333ZM5.83333 9.16659C6.71739 9.16659 7.56523 8.8154 8.19036 8.19027C8.81548 7.56515 9.16667 6.71731 9.16667 5.83325V4.99992C9.16667 4.55789 9.34226 4.13397 9.65482 3.82141C9.96738 3.50885 10.3913 3.33325 10.8333 3.33325C11.2754 3.33325 11.6993 3.50885 12.0118 3.82141C12.3244 4.13397 12.5 4.55789 12.5 4.99992V9.16659H15C15.442 9.16659 15.866 9.34218 16.1785 9.65474C16.4911 9.9673 16.6667 10.3912 16.6667 10.8333L15.8333 14.9999C15.7135 15.5111 15.4861 15.9501 15.1855 16.2507C14.8849 16.5513 14.5274 16.6973 14.1667 16.6666H8.33333C7.67029 16.6666 7.03441 16.4032 6.56557 15.9344C6.09673 15.4655 5.83333 14.8296 5.83333 14.1666" stroke="#3C68FF" stroke-width="1.45833" stroke-linecap="round" stroke-linejoin="round"/>
</g>
<defs>
<clipPath id="clip0_958_12009">
<rect width="20" height="20" fill="white"/>
</clipPath>
</defs>
</svg>
