<svg width="36" height="36" viewBox="0 0 36 36" fill="none" xmlns="http://www.w3.org/2000/svg">
<circle cx="18" cy="18" r="18" fill="#5478F9"/>
<g clip-path="url(#clip0_795_2733)">
<path d="M16 21L27 10" stroke="white" stroke-width="1.75" stroke-linecap="round" stroke-linejoin="round"/>
<path d="M27 10L20.5 28C20.4561 28.0957 20.3857 28.1769 20.2971 28.2338C20.2084 28.2906 20.1053 28.3209 20 28.3209C19.8947 28.3209 19.7916 28.2906 19.7029 28.2338C19.6143 28.1769 19.5439 28.0957 19.5 28L16 21L9 17.5C8.90426 17.4561 8.82313 17.3857 8.76625 17.2971C8.70937 17.2084 8.67913 17.1053 8.67913 17C8.67913 16.8947 8.70937 16.7916 8.76625 16.7029C8.82313 16.6143 8.90426 16.5439 9 16.5L27 10Z" stroke="white" stroke-width="1.75" stroke-linecap="round" stroke-linejoin="round"/>
</g>
<defs>
<clipPath id="clip0_795_2733">
<rect width="24" height="24" fill="white" transform="translate(6 7)"/>
</clipPath>
</defs>
</svg>
