<svg width="24" height="24" viewBox="0 0 24 24" fill="none" xmlns="http://www.w3.org/2000/svg">
<g clip-path="url(#clip0_13905_105983)">
<path fill-rule="evenodd" clip-rule="evenodd" d="M21.8096 5.70999C21.8296 5.76999 21.8496 5.82999 21.8496 5.88999C21.8496 5.92999 21.8696 5.99999 21.8696 5.99999V18.99C21.8696 19 21.8671 19.0075 21.8646 19.015C21.8621 19.0225 21.8596 19.03 21.8596 19.04C21.8596 19.1 21.8496 19.15 21.8296 19.21C21.8236 19.2283 21.8184 19.2466 21.8133 19.2645C21.8017 19.3056 21.7905 19.3452 21.7696 19.38C21.7496 19.4 21.7496 19.41 21.7496 19.43L21.7496 19.43C21.7096 19.49 21.6696 19.55 21.6196 19.6L21.6096 19.61C21.5296 19.69 21.4496 19.74 21.3596 19.78C21.3549 19.7824 21.3497 19.7853 21.3441 19.7884C21.326 19.7983 21.3049 19.81 21.2896 19.81C21.1896 19.85 21.0896 19.87 20.9896 19.87C20.8896 19.87 20.7896 19.85 20.6896 19.81C20.6796 19.805 20.6671 19.8 20.6546 19.795C20.6422 19.79 20.6297 19.785 20.6196 19.78L20.5596 19.75C18.0996 18.33 14.9096 18.33 12.4396 19.75C12.4263 19.7633 12.413 19.7678 12.3996 19.7722C12.393 19.7744 12.3863 19.7767 12.3796 19.78C12.3742 19.7827 12.3687 19.7862 12.3629 19.7899C12.3479 19.7995 12.3314 19.81 12.3096 19.81C12.1196 19.88 11.9096 19.88 11.7096 19.81C11.6996 19.805 11.6871 19.8 11.6746 19.795C11.6621 19.79 11.6496 19.785 11.6396 19.78L11.5796 19.75C9.11965 18.33 5.92965 18.33 3.45965 19.75C3.43965 19.77 3.42965 19.77 3.40965 19.77C3.37488 19.7909 3.33528 19.802 3.2942 19.8137C3.2762 19.8187 3.25793 19.8239 3.23965 19.83C3.21827 19.8336 3.19816 19.8384 3.17841 19.8431C3.14274 19.8517 3.10827 19.86 3.06965 19.86C3.05965 19.87 3.03965 19.87 3.01965 19.87C2.99965 19.87 2.98215 19.865 2.96465 19.86C2.94715 19.855 2.92965 19.85 2.90965 19.85C2.84965 19.85 2.78965 19.84 2.73965 19.82C2.67965 19.8 2.62965 19.77 2.57966 19.74L2.57965 19.74C2.56442 19.7286 2.54773 19.7186 2.5307 19.7084C2.50302 19.6919 2.47442 19.6748 2.44965 19.65C2.41299 19.6207 2.38709 19.586 2.36011 19.5498C2.35029 19.5367 2.34032 19.5233 2.32965 19.51C2.31965 19.495 2.30715 19.4825 2.29465 19.47C2.28215 19.4575 2.26965 19.445 2.25965 19.43C2.23965 19.41 2.23965 19.4 2.23965 19.38C2.2174 19.3429 2.20615 19.3058 2.19366 19.2647C2.18931 19.2503 2.18482 19.2355 2.17965 19.22C2.17608 19.1986 2.17125 19.1785 2.16651 19.1588C2.15793 19.1231 2.14965 19.0886 2.14965 19.05C2.13965 19.03 2.13965 19 2.13965 19V5.99999C2.13965 5.97999 2.14465 5.96249 2.14965 5.94499C2.15465 5.92749 2.15965 5.90999 2.15965 5.88999C2.16965 5.82999 2.17965 5.76999 2.19965 5.70999C2.21965 5.65999 2.23965 5.60999 2.26965 5.55999C2.27811 5.54588 2.28578 5.53177 2.29333 5.51789C2.31253 5.48257 2.33094 5.44871 2.35965 5.41999C2.40235 5.37729 2.43776 5.34917 2.47834 5.31696C2.48527 5.31145 2.49235 5.30583 2.49965 5.29999C2.51465 5.28999 2.52715 5.27749 2.53965 5.26499C2.55215 5.25249 2.56465 5.23999 2.57965 5.22999C2.59465 5.21999 2.60965 5.21249 2.62465 5.20499C2.63965 5.19749 2.65465 5.18999 2.66965 5.17999C5.50965 3.58999 9.11965 3.50999 12.0096 4.98999C14.9096 3.50999 18.5096 3.58999 21.3496 5.17999C21.3647 5.18999 21.3797 5.19749 21.3946 5.20499C21.4096 5.21249 21.4246 5.21999 21.4396 5.22999C21.4547 5.23999 21.4671 5.25249 21.4796 5.26499C21.4921 5.27749 21.5047 5.28999 21.5196 5.29999C21.5353 5.31569 21.5526 5.32984 21.5701 5.34426C21.5973 5.36661 21.6253 5.38961 21.6496 5.41999C21.6646 5.44499 21.6796 5.46749 21.6946 5.48999C21.7096 5.51249 21.7246 5.53499 21.7396 5.55999C21.7696 5.60998 21.7896 5.65998 21.8096 5.70997L21.8096 5.70999ZM11.4996 7.12C11.4996 6.84 11.7196 6.62 11.9996 6.62C12.2796 6.62 12.4996 6.84 12.4996 7.12V17.4C12.4996 17.68 12.2796 17.9 11.9996 17.9C11.7196 17.9 11.4996 17.68 11.4996 17.4V7.12Z" fill="#3C68FF"/>
</g>
<defs>
<clipPath id="clip0_13905_105983">
<rect width="24" height="24" fill="white"/>
</clipPath>
</defs>
</svg>
