<svg width="16" height="16" viewBox="0 0 16 16" fill="none" xmlns="http://www.w3.org/2000/svg">
<g clip-path="url(#clip0_802_12044)">
<path d="M8 10.6667V10.6734" stroke="#3D4964" stroke-width="1.16667" stroke-linecap="round" stroke-linejoin="round"/>
<path d="M8 8.66675C8.29886 8.6658 8.58877 8.56461 8.82332 8.37939C9.05787 8.19416 9.2235 7.93561 9.2937 7.64511C9.36391 7.35461 9.33463 7.04895 9.21055 6.77705C9.08648 6.50516 8.87478 6.28275 8.60933 6.14542C8.34412 6.00956 8.04074 5.96744 7.74854 6.0259C7.45634 6.08436 7.19252 6.23997 7 6.46742" stroke="#3D4964" stroke-width="1.16667" stroke-linecap="round" stroke-linejoin="round"/>
<path d="M8 14C11.3137 14 14 11.3137 14 8C14 4.68629 11.3137 2 8 2C4.68629 2 2 4.68629 2 8C2 11.3137 4.68629 14 8 14Z" stroke="#3D4964" stroke-width="1.16667" stroke-linecap="round" stroke-linejoin="round"/>
</g>
<defs>
<clipPath id="clip0_802_12044">
<rect width="16" height="16" fill="white"/>
</clipPath>
</defs>
</svg>
