<svg width="101" height="100" viewBox="0 0 101 100" fill="none" xmlns="http://www.w3.org/2000/svg">
<path d="M27.7839 44.4354C26.8479 43.9674 26.0138 43.2756 25.9934 42.238C25.9934 41.5259 25.9934 40.8138 26.0138 40.1017C23.6536 40.5289 21.2935 41.0376 18.9944 41.6887C16.8785 42.2787 14.7421 42.9908 12.7483 43.9267C11.1002 44.6999 7.74316 46.5106 7.74316 48.708C7.74316 50.3764 9.73706 51.8006 10.9985 52.5534C13.6028 54.0996 16.9192 55.1983 19.91 55.9715C21.2325 51.4343 24.3047 47.589 27.7839 44.4354ZM20.7035 48.5249C20.0524 51.9633 12.8296 51.9633 12.1989 48.5249C12.1582 48.2604 12.1582 47.9755 12.1989 47.6907C12.85 44.2522 20.0728 44.2522 20.7035 47.6907C20.7442 47.9552 20.7442 48.24 20.7035 48.5249Z" fill="#4E5A70"/>
<path d="M44.4675 46.8972C41.6801 50.3764 39.4217 54.4048 38.9537 58.8809C42.7991 59.1658 46.6648 59.2879 50.5102 59.2879C54.3556 59.2879 58.2213 59.1658 62.0667 58.8809C61.5987 54.4048 59.3403 50.3764 56.5529 46.8972C52.5244 47.06 48.4756 47.06 44.4675 46.8972ZM54.8846 52.8382C54.9456 53.1231 54.9456 53.4079 54.8846 53.6724C54.2335 57.2126 46.7869 57.2126 46.1155 53.6724C46.0544 53.3875 46.0544 53.1027 46.1155 52.8382C46.7869 49.298 54.2335 49.298 54.8846 52.8382Z" fill="#4E5A70"/>
<path d="M28.3943 42.5432C28.8419 42.8077 29.4115 43.0112 29.9202 43.1739C33.9894 44.4557 39.7676 44.7609 44.0606 44.944C48.3536 45.1271 52.6669 45.1271 56.9599 44.944C61.2325 44.7609 67.0107 44.4557 71.1003 43.1739C71.6089 43.0112 72.1582 42.8077 72.6262 42.5432C73.4807 42.0346 73.0535 39.8982 73.0128 38.9827C71.1409 2.90942 29.8999 2.90942 28.028 38.9827C27.967 39.8982 27.5397 42.0346 28.3943 42.5432ZM33.5011 30.1729C34.3353 27.5686 35.4746 25.3102 36.8174 23.4181C38.2417 21.3835 39.9304 19.7558 41.7412 18.5351C42.1888 18.2299 42.7991 18.3519 43.084 18.7996C43.3892 19.2472 43.2671 19.8575 42.8195 20.1424C41.1918 21.2207 39.7066 22.6856 38.4044 24.5167C37.1837 26.2665 36.1257 28.3418 35.3525 30.7426C35.1898 31.2512 34.6404 31.5361 34.1318 31.3733C33.6231 31.2309 33.3383 30.6815 33.5011 30.1729Z" fill="#4E5A70"/>
<path d="M30.8357 52.5941C31.8123 53.1231 33.3586 53.1231 34.3352 52.5941C35.1287 52.1668 35.1287 51.6989 34.3352 51.2716C33.3586 50.7426 31.8123 50.7426 30.8357 51.2716C30.0626 51.6989 30.0626 52.1668 30.8357 52.5941Z" fill="#4E5A70"/>
<path d="M48.6791 52.533C47.8449 53.0009 47.8449 53.5096 48.6791 53.9572C49.6964 54.5065 51.3241 54.5065 52.3414 53.9572C53.1755 53.4892 53.1755 52.9806 52.3414 52.533C51.3241 51.9836 49.6964 51.9836 48.6791 52.533Z" fill="#4E5A70"/>
<path d="M18.1805 47.4465C17.2039 46.9176 15.6577 46.9176 14.6811 47.4465C13.8876 47.8738 13.8876 48.3214 14.6811 48.769C15.6577 49.298 17.2039 49.298 18.1805 48.769C18.974 48.3214 18.974 47.8738 18.1805 47.4465Z" fill="#4E5A70"/>
<path d="M37.0005 58.7385C37.4481 54.3234 39.4623 50.3356 42.087 46.7954C38.2212 46.592 33.5824 46.2461 29.8591 45.1881C26.4003 48.1993 23.145 51.9836 21.8021 56.4394C23.5722 56.8463 25.3627 57.2125 27.1531 57.4974C30.4084 58.0467 33.7045 58.4536 37.0005 58.7385ZM28.3332 51.5157C28.9842 48.0772 36.207 48.0772 36.8377 51.5157C36.8784 51.7802 36.8784 52.065 36.8377 52.3499C36.1867 55.7883 28.9639 55.7883 28.3332 52.3499C28.2721 52.065 28.2721 51.8005 28.3332 51.5157Z" fill="#4E5A70"/>
<path d="M70.1643 51.2716C69.1877 50.7426 67.6414 50.7426 66.6648 51.2716C65.8713 51.6989 65.8713 52.1668 66.6648 52.5941C67.6414 53.1231 69.1877 53.1231 70.1643 52.5941C70.9578 52.1668 70.9578 51.6989 70.1643 51.2716Z" fill="#4E5A70"/>
<path d="M86.319 47.4465C85.3424 46.9176 83.7961 46.9176 82.8195 47.4465C82.026 47.8738 82.026 48.3214 82.8195 48.769C83.7961 49.298 85.3424 49.298 86.319 48.769C87.0921 48.3214 87.0921 47.8738 86.319 47.4465Z" fill="#4E5A70"/>
<path d="M71.141 45.1881C67.438 46.2461 62.7788 46.5716 58.9131 46.7954C61.5377 50.3356 63.5519 54.3234 63.9996 58.7385C67.2956 58.4536 70.5916 58.0467 73.847 57.4974C75.6374 57.1922 77.4278 56.8463 79.1979 56.4394C77.8551 51.9836 74.6201 48.1993 71.141 45.1881ZM72.6669 52.3499C72.0158 55.7883 64.793 55.7883 64.1623 52.3499C64.1216 52.0854 64.1216 51.8005 64.1623 51.5157C64.8134 48.0772 72.0362 48.0772 72.6669 51.5157C72.7279 51.8005 72.7279 52.065 72.6669 52.3499Z" fill="#4E5A70"/>
<path d="M32.9313 84.293H26.0748C24.4064 84.293 24.4064 88.0163 26.0748 88.0163H32.9313C34.5793 88.0163 34.5793 84.293 32.9313 84.293Z" fill="#4E5A70"/>
<path d="M88.2722 43.9267C86.2783 42.9908 84.142 42.2787 82.026 41.6887C79.7269 41.0376 77.3668 40.5289 75.0067 40.1017C75.027 40.8138 75.027 41.5259 75.027 42.238C75.0067 43.2756 74.1725 43.9674 73.2366 44.4354C76.6954 47.589 79.7676 51.4547 81.1308 55.9715C84.142 55.178 87.4583 54.0996 90.0423 52.5534C91.3037 51.8006 93.2976 50.3764 93.2976 48.708C93.2773 46.5106 89.9202 44.6999 88.2722 43.9267ZM88.8215 48.5249C88.1704 51.9633 80.9477 51.9633 80.3169 48.5249C80.2762 48.2604 80.2762 47.9755 80.3169 47.6907C80.968 44.2522 88.1908 44.2522 88.8215 47.6907C88.8826 47.9552 88.8826 48.24 88.8215 48.5249Z" fill="#4E5A70"/>
<path d="M28.5366 82.3397H31.8327L35.8204 67.4262C34.8235 67.0192 33.8469 66.5309 32.911 66.002L28.5366 82.3397Z" fill="#4E5A70"/>
<path d="M72.1989 59.7355C69.208 60.1831 66.1968 60.5086 63.1653 60.7528C58.9537 61.0783 54.7218 61.2411 50.4898 61.2411C46.2579 61.2411 42.0259 61.0783 37.8143 60.7528C34.8031 60.5086 31.792 60.1831 28.7808 59.7355C30.7543 62.706 34.0503 64.6795 37.326 65.9206C44.9964 68.8301 55.7797 68.8301 63.4705 65.9817C66.8276 64.7406 70.1846 62.7467 72.1989 59.7355Z" fill="#4E5A70"/>
<path d="M74.7829 84.354H67.9263C66.258 84.354 66.258 88.0773 67.9263 88.0773H74.7829C76.4309 88.0773 76.4309 84.354 74.7829 84.354Z" fill="#4E5A70"/>
<path d="M72.3007 82.4008L67.9263 66.0834C66.9904 66.6124 66.0138 67.0803 65.0168 67.4872L69.0046 82.4008H72.3007Z" fill="#4E5A70"/>
</svg>
