<svg width="16" height="16" viewBox="0 0 16 16" fill="none" xmlns="http://www.w3.org/2000/svg">
<circle cx="7.9987" cy="7.9987" r="7.16667" fill="#193039" stroke="#193039"/>
<path d="M8.00065 1.33203C4.32065 1.33203 1.33398 4.3187 1.33398 7.9987C1.33398 11.6787 4.32065 14.6654 8.00065 14.6654C11.6807 14.6654 14.6673 11.6787 14.6673 7.9987C14.6673 4.3187 11.6807 1.33203 8.00065 1.33203ZM6.19398 10.8587L3.80065 8.46536C3.54065 8.20536 3.54065 7.78536 3.80065 7.52536C4.06065 7.26536 4.48065 7.26536 4.74065 7.52536L6.66732 9.44536L11.254 4.8587C11.514 4.5987 11.934 4.5987 12.194 4.8587C12.454 5.1187 12.454 5.5387 12.194 5.7987L7.13398 10.8587C6.88065 11.1187 6.45398 11.1187 6.19398 10.8587Z" fill="#198571"/>
</svg>
