<svg width="146" height="147" viewBox="0 0 146 147" fill="none" xmlns="http://www.w3.org/2000/svg">
<path opacity="0.6" d="M2.23598 123.747C7.78478 137.287 16.8322 140.106 23.1932 137.287C35.4952 131.837 67.4515 125.747 100.272 140.062C143.74 159.022 152.989 130.416 139.116 101.481C125.243 72.5464 120.541 43.2854 136.534 27.1642C152.527 11.043 131.598 -14.1764 94.4319 12.0752C70.4136 29.04 52.7869 25.2624 43.3214 20.4666C34.4005 15.9467 24.4793 11.2213 15.1842 14.9108C3.90552 19.3879 -0.538622 29.0945 16.6213 50.7789C40.9384 81.5077 -10.2024 93.3964 2.23598 123.747Z" fill="#273346"/>
<path d="M89.5212 31.7607H49.3673L24.8289 57.7863H111.185L89.5212 31.7607Z" fill="#18212E"/>
<path d="M33.0083 21.3506L49.3672 31.7609L24.8288 57.7865L6.23901 43.6583L33.0083 21.3506Z" fill="#3C4D68"/>
<path d="M105.88 21.3506L89.5211 31.7609L111.185 57.7865L132.649 43.6583L105.88 21.3506Z" fill="#3C4D68"/>
<path d="M94.6359 50.1212C92.5252 54.1661 91.9927 56.3159 85.5905 60.3295C85.5407 60.362 85.5035 60.4103 85.4847 60.4666C84.4619 63.6376 82.7304 66.534 80.4217 68.9363C80.3906 68.9683 80.3687 69.0082 80.3584 69.0516C80.3481 69.095 80.3496 69.1404 80.363 69.183C81.0795 71.5677 81.8551 75.8672 79.6973 79.3914C76.5255 84.5799 74.1764 81.4471 74.6656 80.2724C75.0845 79.266 78.6636 77.1045 77.8373 71.7048C77.8304 71.6616 77.8124 71.6209 77.7852 71.5866C77.758 71.5524 77.7224 71.5257 77.6819 71.5092C77.6414 71.4927 77.5973 71.4868 77.5539 71.4923C77.5104 71.4977 77.4692 71.5143 77.434 71.5403C74.8398 73.4231 71.8623 74.7107 68.7137 75.3113C68.6787 75.3171 68.6454 75.3302 68.6158 75.3498C68.5863 75.3694 68.5613 75.395 68.5424 75.425C68.5235 75.455 68.5112 75.4886 68.5063 75.5237C68.5014 75.5588 68.504 75.5945 68.5139 75.6285C69.3167 78.5027 69.6965 82.9943 66.3446 87.1252C64.5552 89.2788 62.1822 86.1305 64.5552 83.9849C66.0274 82.6575 65.9139 78.8396 65.2247 75.8989C65.2116 75.8418 65.179 75.7911 65.1325 75.7554C65.0861 75.7197 65.0287 75.7012 64.9702 75.7032C64.8332 75.707 64.6921 75.707 64.5552 75.707C59.7118 75.7143 55.003 74.1138 51.1672 71.1565C51.1321 71.1291 51.0905 71.1113 51.0465 71.1049C51.0024 71.0984 50.9574 71.1035 50.9159 71.1197C50.8745 71.1359 50.8379 71.1626 50.8099 71.1972C50.7818 71.2318 50.7633 71.2731 50.7561 71.3171C49.8358 77.3942 53.4894 79.497 54.01 81.0556C54.5896 82.7981 53.2582 84.3487 51.6175 83.9102C51.5819 83.8996 51.5487 83.8822 51.5196 83.8592C46.1707 79.8417 46.6367 71.4228 47.2241 67.37C47.2294 67.3369 47.2277 67.303 47.2189 67.2706C47.2101 67.2382 47.1945 67.208 47.1731 67.1821C44.1819 63.3329 42.5625 58.5946 42.5721 53.7198C42.5721 44.7801 47.9093 37.0857 55.5724 33.6516C55.5729 33.6516 55.5735 33.6515 55.5739 33.6513C55.5744 33.6511 55.5749 33.6509 55.5752 33.6505C55.5756 33.6501 55.5759 33.6497 55.5761 33.6492C55.5763 33.6487 55.5764 33.6482 55.5764 33.6477C56.7549 32.1556 58.1921 30.0452 58.4114 28.5651C58.4186 28.5149 58.4407 28.4681 58.4747 28.4305C58.5086 28.3929 58.5531 28.3664 58.6022 28.3542C58.6514 28.342 58.7031 28.3447 58.7507 28.3621C58.7983 28.3794 58.8397 28.4105 58.8695 28.4515C59.4334 29.2111 60.3066 30.66 60.1148 32.1871C60.1069 32.238 60.103 32.2888 60.0952 32.3398C60.0795 32.426 60.06 32.5082 60.0404 32.5943C60.0208 32.6609 60.0051 32.7275 59.9816 32.7941C60.2555 32.5656 60.5168 32.3224 60.7644 32.0657C61.3399 31.4745 62.0683 30.5856 62.3816 29.6341C62.3964 29.5833 62.4266 29.5384 62.468 29.5055C62.5094 29.4726 62.56 29.4533 62.6128 29.4503C62.6656 29.4474 62.718 29.4608 62.7628 29.4889C62.8077 29.5169 62.8427 29.5582 62.8631 29.6069C63.0666 30.1082 63.3056 30.8091 63.3878 31.5256C63.3949 31.5899 63.4257 31.6492 63.4743 31.6919C63.5228 31.7347 63.5855 31.7577 63.6502 31.7566C63.9517 31.7449 64.2532 31.7371 64.5547 31.7371C76.6974 31.7371 86.5416 41.5813 86.5416 53.7201C86.5416 53.9981 86.5377 54.2721 86.5259 54.5462C86.5242 54.5881 86.5327 54.6297 86.5507 54.6675C86.5687 54.7054 86.5956 54.7382 86.6292 54.7633C86.6627 54.7884 86.7019 54.8049 86.7432 54.8114C86.7846 54.8179 86.8269 54.8143 86.8666 54.8008C88.1744 54.3426 89.823 53.2384 90.8176 50.6109C92.6776 45.7162 92.8734 44.3458 92.286 40.5279C91.6987 36.71 94.5378 36.9061 95.1249 38.1784C95.712 39.4508 96.9851 45.6181 94.6359 50.1212Z" fill="#5478F9"/>
<ellipse cx="67.6709" cy="47.7839" rx="1.88527" ry="2.1546" transform="rotate(-27.707 67.6709 47.7839)" fill="white"/>
<ellipse cx="60.2169" cy="50.4375" rx="1.88527" ry="2.1546" transform="rotate(-9.56041 60.2169 50.4375)" fill="white"/>
<path d="M56.9945 43C57.061 43.9333 56.5553 46.24 54 48" stroke="white" stroke-linecap="round"/>
<path d="M65.5582 41.1707C66.0757 41.9536 67.8885 43.4781 71 43.3128" stroke="white" stroke-linecap="round"/>
<path d="M68.4268 55.6262C67.8652 55.4692 66.3936 55.4912 65 56.8351" stroke="white" stroke-linecap="round"/>
<path d="M24.8289 57.7861H111.185V124.199C111.185 124.335 111.131 124.464 111.036 124.56C110.94 124.656 110.81 124.709 110.675 124.709H25.3389C25.2036 124.709 25.0739 124.656 24.9783 124.56C24.8826 124.464 24.8289 124.335 24.8289 124.199V57.7861Z" fill="#3C4D68"/>
</svg>
