<svg width="146" height="147" viewBox="0 0 146 147" fill="none" xmlns="http://www.w3.org/2000/svg">
<path opacity="0.6" d="M2.23598 123.747C7.78478 137.287 16.8322 140.106 23.1932 137.287C35.4952 131.837 67.4515 125.747 100.272 140.062C143.74 159.022 152.989 130.416 139.116 101.481C125.243 72.5464 120.541 43.2854 136.534 27.1642C152.527 11.043 131.598 -14.1764 94.4319 12.0752C70.4136 29.04 52.7869 25.2624 43.3214 20.4666C34.4005 15.9467 24.4793 11.2213 15.1842 14.9108C3.90552 19.3879 -0.538622 29.0945 16.6213 50.7789C40.9384 81.5077 -10.2024 93.3964 2.23598 123.747Z" fill="#F2F3F5"/>
<path d="M89.5211 31.7612H49.3673L24.8289 57.7868H111.185L89.5211 31.7612Z" fill="#9BA6BC"/>
<path d="M33.0083 21.3511L49.3672 31.7614L24.8288 57.787L6.23901 43.6588L33.0083 21.3511Z" fill="#CCD4E0"/>
<path d="M105.88 21.3511L89.5211 31.7614L111.185 57.787L132.649 43.6588L105.88 21.3511Z" fill="#CCD4E0"/>
<path d="M94.6359 50.1217C92.5252 54.1666 91.9927 56.3164 85.5905 60.33C85.5407 60.3625 85.5035 60.4108 85.4847 60.4671C84.4619 63.6381 82.7304 66.5345 80.4217 68.9368C80.3906 68.9688 80.3687 69.0086 80.3584 69.0521C80.3481 69.0955 80.3496 69.1409 80.363 69.1835C81.0795 71.5682 81.8551 75.8677 79.6973 79.3919C76.5255 84.5804 74.1764 81.4476 74.6656 80.2729C75.0845 79.2665 78.6636 77.105 77.8373 71.7053C77.8304 71.6621 77.8124 71.6214 77.7852 71.5871C77.758 71.5529 77.7224 71.5262 77.6819 71.5097C77.6414 71.4931 77.5973 71.4873 77.5539 71.4928C77.5104 71.4982 77.4692 71.5148 77.434 71.5408C74.8398 73.4236 71.8623 74.7112 68.7137 75.3118C68.6787 75.3176 68.6454 75.3307 68.6158 75.3503C68.5863 75.3699 68.5613 75.3955 68.5424 75.4255C68.5235 75.4555 68.5112 75.4891 68.5063 75.5242C68.5014 75.5593 68.504 75.595 68.5139 75.629C69.3167 78.5032 69.6965 82.9948 66.3446 87.1257C64.5552 89.2793 62.1822 86.131 64.5552 83.9854C66.0274 82.6579 65.9139 78.8401 65.2247 75.8994C65.2116 75.8423 65.179 75.7916 65.1325 75.7559C65.0861 75.7202 65.0287 75.7017 64.9702 75.7036C64.8332 75.7075 64.6921 75.7075 64.5552 75.7075C59.7118 75.7147 55.003 74.1143 51.1672 71.157C51.1321 71.1296 51.0905 71.1118 51.0465 71.1053C51.0024 71.0989 50.9574 71.104 50.9159 71.1202C50.8745 71.1364 50.8379 71.1631 50.8099 71.1977C50.7818 71.2323 50.7633 71.2736 50.7561 71.3176C49.8358 77.3946 53.4894 79.4975 54.01 81.0561C54.5896 82.7985 53.2582 84.3491 51.6175 83.9107C51.5819 83.9 51.5487 83.8827 51.5196 83.8597C46.1707 79.8421 46.6367 71.4233 47.2241 67.3705C47.2294 67.3374 47.2277 67.3035 47.2189 67.2711C47.2101 67.2387 47.1945 67.2085 47.1731 67.1826C44.1819 63.3334 42.5625 58.5951 42.5721 53.7203C42.5721 44.7806 47.9093 37.0861 55.5724 33.6521C55.5729 33.6521 55.5735 33.652 55.5739 33.6518C55.5744 33.6516 55.5749 33.6513 55.5752 33.651C55.5756 33.6506 55.5759 33.6502 55.5761 33.6497C55.5763 33.6492 55.5764 33.6487 55.5764 33.6482C56.7549 32.1561 58.1921 30.0457 58.4114 28.5656C58.4186 28.5154 58.4407 28.4686 58.4747 28.431C58.5086 28.3934 58.5531 28.3669 58.6022 28.3547C58.6514 28.3425 58.7031 28.3452 58.7507 28.3625C58.7983 28.3799 58.8397 28.411 58.8695 28.452C59.4334 29.2116 60.3066 30.6605 60.1148 32.1876C60.1069 32.2385 60.103 32.2893 60.0952 32.3403C60.0795 32.4265 60.06 32.5087 60.0404 32.5948C60.0208 32.6614 60.0051 32.728 59.9816 32.7946C60.2555 32.566 60.5168 32.3229 60.7644 32.0662C61.3399 31.475 62.0683 30.5861 62.3816 29.6346C62.3964 29.5838 62.4266 29.5389 62.468 29.506C62.5094 29.4731 62.56 29.4538 62.6128 29.4508C62.6656 29.4479 62.718 29.4613 62.7628 29.4894C62.8077 29.5174 62.8427 29.5586 62.8631 29.6074C63.0666 30.1086 63.3056 30.8095 63.3878 31.5261C63.3949 31.5904 63.4257 31.6497 63.4743 31.6924C63.5228 31.7351 63.5855 31.7582 63.6502 31.7571C63.9517 31.7454 64.2532 31.7376 64.5547 31.7376C76.6974 31.7376 86.5416 41.5817 86.5416 53.7205C86.5416 53.9986 86.5377 54.2726 86.5259 54.5467C86.5242 54.5886 86.5327 54.6302 86.5507 54.668C86.5687 54.7058 86.5956 54.7387 86.6292 54.7638C86.6627 54.7889 86.7019 54.8054 86.7432 54.8119C86.7846 54.8184 86.8269 54.8148 86.8666 54.8013C88.1744 54.3431 89.823 53.2389 90.8176 50.6114C92.6776 45.7167 92.8734 44.3463 92.286 40.5284C91.6987 36.7105 94.5378 36.9065 95.1249 38.1789C95.712 39.4513 96.9851 45.6186 94.6359 50.1217Z" fill="#5478F9"/>
<ellipse cx="67.6709" cy="47.7844" rx="1.88527" ry="2.1546" transform="rotate(-27.707 67.6709 47.7844)" fill="white"/>
<ellipse cx="60.2169" cy="50.438" rx="1.88527" ry="2.1546" transform="rotate(-9.56041 60.2169 50.438)" fill="white"/>
<path d="M56.9945 43.0005C57.061 43.9338 56.5553 46.2405 54 48.0005" stroke="white" stroke-linecap="round"/>
<path d="M65.5582 41.1712C66.0757 41.9541 67.8885 43.4786 71 43.3133" stroke="white" stroke-linecap="round"/>
<path d="M68.4267 55.6267C67.8652 55.4697 66.3936 55.4917 65 56.8355" stroke="white" stroke-linecap="round"/>
<path d="M24.8289 57.7871H111.185V124.2C111.185 124.335 111.131 124.465 111.036 124.561C110.94 124.656 110.81 124.71 110.675 124.71H25.3389C25.2036 124.71 25.0739 124.656 24.9782 124.561C24.8826 124.465 24.8289 124.335 24.8289 124.2V57.7871Z" fill="#CCD4E0"/>
</svg>
