<svg width="101" height="100" viewBox="0 0 101 100" fill="none" xmlns="http://www.w3.org/2000/svg">
<g clip-path="url(#clip0_2065_15240)">
<path fill-rule="evenodd" clip-rule="evenodd" d="M41.4089 45.0636C42.8032 44.6903 44.2585 45.4067 44.813 46.7393L46.9004 51.7563C47.2179 52.5194 46.8922 53.3922 46.1569 53.7702L43.8625 54.9498C43.4528 55.1605 43.0204 55.1872 42.5877 55.0284C42.1552 54.8697 41.8446 54.5691 41.6669 54.1442L39.4969 48.9572C38.8238 47.3481 39.7241 45.5148 41.4089 45.0636ZM66.5858 63.479C64.7364 65.0719 64.7325 67.9355 66.5776 69.5335L88.939 88.8995C89.3551 89.2598 90 89.0744 90 88.524V44.5943C90 44.0483 89.3616 43.8625 88.9479 44.2188L66.5858 63.479ZM47.4914 70.8058C48.9908 72.1139 51.2237 72.1209 52.7313 70.8224L86.6713 41.5906C86.8635 41.425 86.7753 41.1178 86.5216 41.1178H81.4104C79.1514 41.1178 77.4112 43.1206 76.252 45.0594C75.3208 46.617 73.8113 47.8309 71.9362 48.333C69.3613 49.0225 66.6946 48.2166 64.9178 46.4159C64.3551 45.8456 63.7361 45.3097 62.976 45.0563C59.7943 43.9956 56.2719 43.4496 52.7528 43.2964C50.0167 43.1773 48.2682 45.9905 49.3202 48.519L50.112 50.4219C51.1217 52.8489 50.085 55.6594 47.748 56.861L45.4536 58.0407C44.1806 58.6952 42.7326 58.7843 41.3888 58.2913C40.0476 57.7991 39.0086 56.8018 38.4578 55.485L35.9459 49.4805C35.259 47.8385 33.5507 46.9199 31.7909 46.6534C29.1391 46.2517 26.6911 44.9293 24.8997 42.9477C23.9529 41.9003 22.6842 41.1178 21.2722 41.1178H13.4786C13.472 41.1178 13.469 41.1259 13.4739 41.1302L47.4914 70.8058ZM51.233 76.7036L57.7962 71.0505C59.2996 69.7556 61.5251 69.7585 63.0252 71.0575L86.67 91.5331C86.8597 91.6974 86.7726 92 86.5216 92H13.4784C13.4756 92 13.4742 91.9965 13.4764 91.9946L37.2808 71.1133C38.787 69.7921 41.0382 69.789 42.548 71.106L48.9548 76.6947C49.2821 76.9817 49.689 77.1235 50.0976 77.1235C50.503 77.1233 50.9057 76.9832 51.233 76.7036ZM33.8222 63.4953C35.6463 65.0866 35.65 67.9206 33.8302 69.5168L11.5963 89.0176C10.9781 89.5599 10 89.3464 10 88.524V44.5943C10 43.7762 10.9727 43.5619 11.5892 44.0997L33.8222 63.4953ZM78.8613 33.0164L84.3274 34.4799C85.2016 34.714 86.1006 34.1898 86.3326 33.3169C86.5651 32.4427 86.0414 31.5458 85.1682 31.3121L79.7022 29.8486C78.8279 29.6145 77.929 30.1386 77.697 31.0116C77.4643 31.8857 77.9879 32.7827 78.8613 33.0164ZM76.2295 16.8975L80.2309 12.8989C80.8702 12.2601 80.8749 11.2218 80.2361 10.5809C79.5982 9.94084 78.5577 9.93597 77.9175 10.5757L73.9161 14.5742C73.2768 15.2131 73.2721 16.2513 73.9109 16.8922C74.5488 17.5323 75.5893 17.5372 76.2295 16.8975ZM81.0342 24.2571L86.2159 22.8696C87.0955 22.6341 87.6174 21.7307 87.3818 20.8517C87.1461 19.9727 86.2421 19.4511 85.3625 19.6866L80.1806 21.0741C79.301 21.3096 78.7791 22.213 79.0147 23.092C79.2505 23.971 80.1545 24.4926 81.0342 24.2571ZM71 30.3968C70.9179 30.0906 71.126 29.7846 71.4322 29.7024C73.7939 29.07 75.1954 26.6443 74.5626 24.2842C73.9297 21.9241 71.5022 20.5237 69.1405 21.156C68.8343 21.2381 68.5009 21.0768 68.4188 20.7706L65.7374 10.7705C65.2049 8.78445 63.143 7.59486 61.1556 8.127C59.867 8.47199 58.9013 9.46757 58.5391 10.6779C58.2294 11.7129 58.082 12.8495 57.3891 13.6785C54.4002 17.2542 50.061 20.7163 44.8457 23.5338C43.1339 24.4585 42.2035 26.4136 42.7074 28.2928L44.9714 36.7361C45.4746 38.6128 47.2545 39.8396 49.1969 39.7883C55.1429 39.6314 60.654 40.4848 65.0398 42.0996C66.0377 42.4671 66.7285 43.356 67.5047 44.0828C68.4191 44.939 69.7433 45.3213 71.036 44.9752C73.0155 44.4452 74.2118 42.3745 73.6814 40.3966L71 30.3968ZM41.5193 37.2929C42.0917 39.4274 40.8249 41.6216 38.6903 42.1931L35.5382 43.0371C31.2741 44.1789 26.8505 41.6266 25.7079 37.3657C24.5653 33.1047 27.1193 28.6838 31.3835 27.5421L34.5386 26.6973C36.672 26.126 38.8647 27.392 39.4366 29.5253C40.1308 32.1145 40.825 34.7037 41.5193 37.2929Z" fill="#19212F"/>
<path d="M11.0337 30.4576C12.157 30.4576 13.1063 29.5083 13.1063 28.4009C13.1063 27.2934 12.1412 26.3441 11.0337 26.3441C9.92626 26.3441 8.96118 27.2934 8.96118 28.4009C9.11939 29.5083 9.92626 30.4576 11.0337 30.4576Z" fill="#19212F"/>
<path d="M32.4256 11.5981C34.9886 11.5981 36.903 9.54133 36.903 7.16817C36.903 4.79502 34.8304 2.73828 32.4256 2.73828C30.0208 2.73828 27.9482 4.79502 27.9482 7.16817C27.9482 9.54133 30.0208 11.5981 32.4256 11.5981Z" fill="#19212F"/>
<path d="M17.6188 5.68677C18.4098 5.68677 19.0585 6.31961 19.0585 7.11066C19.0585 7.90171 18.4098 8.53455 17.6188 8.53455C16.8277 8.53455 16.1791 7.90171 16.1791 7.11066C16.1791 6.31961 16.8277 5.68677 17.6188 5.68677Z" fill="#19212F"/>
<path d="M36.4437 5.63721C37.2348 5.63721 37.8835 6.27005 37.8835 7.0611C37.8835 7.85215 37.2348 8.48499 36.4437 8.48499C35.6527 8.48499 35.004 7.85215 35.004 7.0611C35.004 6.27005 35.6527 5.63721 36.4437 5.63721Z" fill="#19212F"/>
<path d="M92.4527 5.60376C93.2437 5.60376 93.8924 6.2366 93.8924 7.02765C93.8924 7.81871 93.2437 8.45155 92.4527 8.45155C91.6616 8.45155 91.0129 7.81871 91.0129 7.02765C91.0129 6.2366 91.6616 5.60376 92.4527 5.60376Z" fill="#19212F"/>
<path d="M26.5059 15.2729C27.2969 15.2729 27.9456 15.9058 27.9456 16.6968C27.9456 17.4879 27.2969 18.1207 26.5059 18.1207C25.7148 18.1207 25.0662 17.4879 25.0662 16.6968C25.0662 15.9058 25.7148 15.2729 26.5059 15.2729Z" fill="#19212F"/>
<path d="M13.5944 76.9327C14.3854 76.9327 15.0341 77.5656 15.0341 78.3566C15.0341 79.1477 14.3854 79.7805 13.5944 79.7805C12.8033 79.7805 12.1547 79.1477 12.1547 78.3566C12.1547 77.5656 12.8033 76.9327 13.5944 76.9327Z" fill="#19212F"/>
<path d="M39.4773 88.7991C40.2684 88.7991 40.917 89.4319 40.917 90.223C40.917 91.014 40.2684 91.6469 39.4773 91.6469C38.6863 91.6469 38.0376 91.014 38.0376 90.223C38.0376 89.4319 38.6863 88.7991 39.4773 88.7991Z" fill="#19212F"/>
</g>
<defs>
<clipPath id="clip0_2065_15240">
<rect width="100.99" height="100" fill="white" transform="translate(0.00500488)"/>
</clipPath>
</defs>
</svg>
