<svg width="16" height="16" viewBox="0 0 16 16" fill="none" xmlns="http://www.w3.org/2000/svg">
<path d="M8.00001 1.33301C4.32001 1.33301 1.33334 4.31967 1.33334 7.99967C1.33334 11.6797 4.32001 14.6663 8.00001 14.6663C11.68 14.6663 14.6667 11.6797 14.6667 7.99967C14.6667 4.31967 11.68 1.33301 8.00001 1.33301ZM8.00001 13.333C5.06001 13.333 2.66668 10.9397 2.66668 7.99967C2.66668 5.05967 5.06001 2.66634 8.00001 2.66634C10.94 2.66634 13.3333 5.05967 13.3333 7.99967C13.3333 10.9397 10.94 13.333 8.00001 13.333ZM10.5867 5.52634L6.66668 9.44634L5.41334 8.19301C5.15334 7.93301 4.73334 7.93301 4.47334 8.19301C4.21334 8.45301 4.21334 8.87301 4.47334 9.13301L6.20001 10.8597C6.46001 11.1197 6.88001 11.1197 7.14001 10.8597L11.5333 6.46634C11.7933 6.20634 11.7933 5.78634 11.5333 5.52634C11.2733 5.26634 10.8467 5.26634 10.5867 5.52634Z" fill="#19212F"/>
</svg>
