<svg width="20" height="20" viewBox="0 0 20 20" fill="none" xmlns="http://www.w3.org/2000/svg">
<path d="M16.25 9.16683V4.16683C16.25 3.25016 15.5 2.50016 14.5833 2.50016H13.75V1.66683C13.75 1.2085 13.375 0.833496 12.9167 0.833496C12.4583 0.833496 12.0833 1.2085 12.0833 1.66683V2.50016H5.41667V1.66683C5.41667 1.2085 5.04167 0.833496 4.58333 0.833496C4.125 0.833496 3.75 1.2085 3.75 1.66683V2.50016H2.91667C2 2.50016 1.25 3.25016 1.25 4.16683V15.8335C1.25 16.7502 2 17.5002 2.91667 17.5002H8.75V15.8335H2.91667V7.50016H14.5833V9.16683H16.25ZM11.3583 15.8335C10.9 15.8335 10.6 16.3002 10.7917 16.7168C11.4417 18.1585 12.8917 19.1668 14.5833 19.1668C16.8833 19.1668 18.75 17.3002 18.75 15.0002C18.75 12.7002 16.8833 10.8335 14.5833 10.8335C13.45 10.8335 12.4167 11.2918 11.6667 12.0252V11.4585C11.6667 11.1168 11.3833 10.8335 11.0417 10.8335C10.7 10.8335 10.4167 11.1168 10.4167 11.4585V13.3335C10.4167 13.7918 10.7917 14.1668 11.25 14.1668H13.125C13.4667 14.1668 13.75 13.8835 13.75 13.5418C13.75 13.2002 13.4667 12.9168 13.125 12.9168H12.5417C13.0667 12.4002 13.7917 12.0835 14.5833 12.0835C16.1917 12.0835 17.5 13.3918 17.5 15.0002C17.5 16.6085 16.1917 17.9168 14.5833 17.9168C13.4 17.9168 12.3833 17.2085 11.925 16.2002C11.825 15.9752 11.6 15.8335 11.3583 15.8335Z" fill="#198571"/>
</svg>
