<svg width="16" height="15" viewBox="0 0 16 15" fill="none" xmlns="http://www.w3.org/2000/svg">
<path d="M15.3337 7.57812L13.707 5.71813L13.9337 3.25813L11.527 2.71146L10.267 0.578125L8.00033 1.55146L5.73366 0.578125L4.47366 2.70479L2.06699 3.24479L2.29366 5.71146L0.666992 7.57812L2.29366 9.43813L2.06699 11.9048L4.47366 12.4515L5.73366 14.5781L8.00033 13.5981L10.267 14.5715L11.527 12.4448L13.9337 11.8981L13.707 9.43813L15.3337 7.57812ZM6.25366 10.2515L4.66699 8.65146C4.40699 8.39146 4.40699 7.97146 4.66699 7.71146L4.71366 7.66479C4.97366 7.40479 5.40033 7.40479 5.66033 7.66479L6.73366 8.74479L10.167 5.30479C10.427 5.04479 10.8537 5.04479 11.1137 5.30479L11.1603 5.35146C11.4203 5.61146 11.4203 6.03146 11.1603 6.29146L7.21366 10.2515C6.94032 10.5115 6.52033 10.5115 6.25366 10.2515Z" fill="#19212F"/>
</svg>
