<svg width="14" height="15" viewBox="0 0 14 15" fill="none" xmlns="http://www.w3.org/2000/svg">
<path d="M12.333 4.24544H8.99967V2.24544C8.99967 1.51211 8.39967 0.912109 7.66634 0.912109H6.33301C5.59967 0.912109 4.99967 1.51211 4.99967 2.24544V4.24544H1.66634C0.933008 4.24544 0.333008 4.84544 0.333008 5.57878V12.9121C0.333008 13.6454 0.933008 14.2454 1.66634 14.2454H12.333C13.0663 14.2454 13.6663 13.6454 13.6663 12.9121V5.57878C13.6663 4.84544 13.0663 4.24544 12.333 4.24544ZM4.99967 7.57878C5.55301 7.57878 5.99967 8.02544 5.99967 8.57878C5.99967 9.13211 5.55301 9.57878 4.99967 9.57878C4.44634 9.57878 3.99967 9.13211 3.99967 8.57878C3.99967 8.02544 4.44634 7.57878 4.99967 7.57878ZM6.99967 11.5788H2.99967V11.2921C2.99967 10.8921 3.23967 10.5254 3.61301 10.3654C4.03967 10.1788 4.50634 10.0788 4.99967 10.0788C5.49301 10.0788 5.95967 10.1788 6.38634 10.3654C6.75301 10.5254 6.99967 10.8854 6.99967 11.2921V11.5788ZM7.66634 5.57878H6.33301V2.24544H7.66634V5.57878ZM10.4997 10.5788H8.83301C8.55967 10.5788 8.33301 10.3521 8.33301 10.0788C8.33301 9.80544 8.55967 9.57878 8.83301 9.57878H10.4997C10.773 9.57878 10.9997 9.80544 10.9997 10.0788C10.9997 10.3521 10.773 10.5788 10.4997 10.5788ZM10.4997 8.57878H8.83301C8.55967 8.57878 8.33301 8.35211 8.33301 8.07878C8.33301 7.80544 8.55967 7.57878 8.83301 7.57878H10.4997C10.773 7.57878 10.9997 7.80544 10.9997 8.07878C10.9997 8.35211 10.773 8.57878 10.4997 8.57878Z" fill="#19212F"/>
</svg>
