<svg width="100" height="102" viewBox="0 0 100 102" fill="none" xmlns="http://www.w3.org/2000/svg">
<circle cx="50" cy="50" r="50" fill="#E3E8EF"/>
<mask id="mask0_101_32" style="mask-type:alpha" maskUnits="userSpaceOnUse" x="-2" y="-2" width="104" height="104">
<circle cx="50" cy="50" r="51" fill="#E3E8EF" stroke="white" stroke-width="2"/>
</mask>
<g mask="url(#mask0_101_32)">
<path d="M80.1446 88.0542C76.6081 83.6128 48.6603 73.8724 48.6603 73.8724C48.6603 73.8724 21.2955 84.6533 17.1664 88.0542C13.0469 91.4648 11.5081 112.988 11.5081 112.988H85.0001C85.0001 112.988 83.6716 92.4956 80.1446 88.0542Z" fill="#273346"/>
<path d="M57.3296 79.0646C57.3296 79.0646 56.7466 81.8971 53.4299 83.3904C52.2352 83.9299 50.6772 90.7992 48.67 90.7992C46.5481 90.7992 44.9328 83.8914 43.7189 83.2941C40.5743 81.7718 40.0199 79.0646 40.0199 79.0646C40.0199 79.0646 42.1323 74.8351 40.0199 69.8734C37.9076 64.9117 59.9199 63.9001 57.3392 69.8734C54.7585 75.8467 57.3392 79.0646 57.3392 79.0646H57.3296Z" fill="#4E5A70"/>
<path d="M68.4265 59.3046C70.0418 52.0114 71.9821 41.2787 71.9821 41.2787C78.6537 26.2492 71.7336 3.58915 58.8015 10.5548C42.8013 -4.17614 17.4915 16.4221 26.0555 41.0764C26.0555 41.0764 27.0878 52.3582 28.7509 59.5455C30.6243 67.6287 44.4357 73.6309 48.6604 73.8718C52.8755 74.1126 66.7156 67.0314 68.4265 59.3142V59.3046Z" fill="#19212F"/>
<path d="M73.1386 45.5749C73.1386 49.5153 70.3668 54.9298 68.5029 54.9298C66.6391 54.9298 65.1194 51.7312 65.1194 47.8004C65.1194 43.8696 67.031 41.8271 68.5029 40.671C70.3094 39.2451 73.1386 40.671 73.1386 45.5845V45.5749Z" fill="#8697AF"/>
<path d="M24.7461 45.5749C24.7461 49.5153 27.5179 54.9298 29.3818 54.9298C31.2456 54.9298 32.7653 51.7312 32.7653 47.8004C32.7653 43.8696 30.8537 41.8271 29.3818 40.671C27.5753 39.2451 24.7461 40.671 24.7461 45.5845V45.5749Z" fill="#8697AF"/>
<path d="M49.0236 14.3604C35.9003 14.3604 30.0986 23.6286 30.0986 37.4539V54.7668C30.0986 66.8098 41.9999 77.1089 48.2589 77.1089C53.9999 77.1089 67.9486 65.066 67.9486 53.6589V37.4539C67.9486 23.6286 62.1468 14.3604 49.0236 14.3604Z" fill="#79889F"/>
<path d="M67.9487 47.3193L69.1339 37.2321C69.1339 23.4069 62.147 13.1077 49.0237 13.1077C35.9005 13.1077 29.4201 23.4069 29.4201 37.2321L30.0987 49.5352C30.0987 49.5352 31.6567 46.8954 31.5133 42.9935C31.1979 34.1202 37.3629 33.3302 44.541 31.9429C55.8578 29.7655 59.0406 22.9251 59.0406 22.9251C59.0406 22.9251 62.7491 24.1872 65.1195 29.7655C66.6488 33.3688 67.012 38.8893 66.8878 41.1533C66.7731 43.4078 67.9487 47.3193 67.9487 47.3193Z" fill="#19212F"/>
<path d="M37.8791 37.2328C32.8038 37.2328 29.6209 39.1307 29.6209 41.1539C29.6209 44.3622 30.787 49.5744 35.8241 50.191C40.6987 50.7883 47.074 49.0059 47.074 40.8071C47.074 38.9091 42.9544 37.2424 37.8791 37.2424V37.2328ZM36.1969 49.2661C31.8766 48.7362 30.8826 44.2851 30.8826 41.5393C30.8826 39.8148 33.5971 38.1769 37.946 38.1769C42.2949 38.1769 45.8219 39.6028 45.8219 41.231C45.8219 48.2545 40.3738 49.7767 36.1969 49.2661Z" fill="white"/>
<path d="M50.2566 42.8783C50.2566 42.8783 50.0176 41.6258 48.345 41.6258C47.198 41.6258 46.9017 42.9939 46.9017 42.9939L46.29 39.381C46.29 39.381 47.1311 40.1036 47.6855 40.1036C47.9626 40.1036 48.6508 40.2481 49.2243 40.1036C49.7978 39.9591 50.2566 39.381 50.2566 39.381V42.8687V42.8783Z" fill="white"/>
<path d="M30.3281 44.8438C30.3281 44.8438 28.5025 44.7089 28.5025 43.7648V40.9226C28.5025 39.4389 30.3281 39.911 30.3281 39.911V44.8438Z" fill="white"/>
<path d="M49.4346 40.8071C49.4346 49.0059 55.8003 50.7883 60.6845 50.191C65.7312 49.5744 66.8877 44.3718 66.8877 41.1539C66.8877 39.1307 63.7144 37.2328 58.6295 37.2328C53.5446 37.2328 49.4346 38.8995 49.4346 40.7975V40.8071ZM50.6867 41.231C50.6867 39.6028 54.2137 38.1769 58.5626 38.1769C62.9115 38.1769 65.626 39.8051 65.626 41.5393C65.626 44.2851 64.632 48.7458 60.3213 49.2661C56.1444 49.7767 50.6963 48.2545 50.6963 41.231H50.6867Z" fill="white"/>
<path d="M66.1805 44.8438C66.1805 44.8438 68.0061 44.7089 68.0061 43.7648V40.9226C68.0061 39.4389 66.1805 39.911 66.1805 39.911V44.8438Z" fill="white"/>
</g>
</svg>
