<svg width="24" height="24" viewBox="0 0 24 24" fill="none" xmlns="http://www.w3.org/2000/svg">
<g clip-path="url(#clip0_1576_13590)">
<path d="M19 18.0002C19.9282 18.0002 20.8185 17.6314 21.4749 16.9751C22.1312 16.3187 22.5 15.4285 22.5 14.5002C22.5 13.5719 22.1312 12.6817 21.4749 12.0253C20.8185 11.3689 19.9282 11.0002 19 11.0002H18C18.1459 10.3502 18.1481 9.68061 18.0065 9.02979C17.8649 8.37898 17.5823 7.75963 17.1748 7.20712C16.7672 6.65461 16.2427 6.17976 15.6313 5.80968C15.0198 5.43959 14.3334 5.18152 13.6111 5.0502C12.8888 4.91887 12.1449 4.91687 11.4218 5.04431C10.6986 5.17174 10.0105 5.42612 9.39658 5.79291C8.15675 6.53368 7.29467 7.68737 6.99999 9.0002C5.93394 8.95749 4.88553 9.2706 4.03426 9.88589C3.18299 10.5012 2.58181 11.3804 2.33366 12.373C2.08551 13.3656 2.20582 14.4099 2.67399 15.327C3.14216 16.2441 3.92907 16.977 4.89999 17.4002" stroke="white" stroke-width="1.75" stroke-linecap="round" stroke-linejoin="round"/>
<path d="M12 13V22" stroke="white" stroke-width="1.75" stroke-linecap="round" stroke-linejoin="round"/>
<path d="M9 19L12 22L15 19" stroke="white" stroke-width="1.75" stroke-linecap="round" stroke-linejoin="round"/>
</g>
<defs>
<clipPath id="clip0_1576_13590">
<rect width="24" height="24" fill="white"/>
</clipPath>
</defs>
</svg>
