<svg width="14" height="13" viewBox="0 0 14 13" fill="none" xmlns="http://www.w3.org/2000/svg">
<path d="M1.96958 7.36172V9.23505C1.96958 9.72172 2.23625 10.1751 2.66292 10.4084L5.99625 12.2284C6.39625 12.4484 6.87625 12.4484 7.27625 12.2284L10.6096 10.4084C11.0363 10.1751 11.3029 9.72172 11.3029 9.23505V7.36172L7.27625 9.56172C6.87625 9.78172 6.39625 9.78172 5.99625 9.56172L1.96958 7.36172ZM5.99625 0.921719L0.37625 3.98839C-0.08375 4.24172 -0.08375 4.90839 0.37625 5.16172L5.99625 8.22839C6.39625 8.44839 6.87625 8.44839 7.27625 8.22839L12.6362 5.30172V9.24172C12.6362 9.60839 12.9362 9.90839 13.3029 9.90839C13.6696 9.90839 13.9696 9.60839 13.9696 9.24172V4.96839C13.9696 4.72172 13.8362 4.50172 13.6229 4.38172L7.27625 0.921719C6.87625 0.708385 6.39625 0.708385 5.99625 0.921719Z" fill="#19212F"/>
</svg>
