<svg width="14" height="15" viewBox="0 0 14 15" fill="none" xmlns="http://www.w3.org/2000/svg">
<path d="M10.0003 6.91081C10.467 6.91081 10.9137 6.97747 11.3337 7.10414V6.24414C11.3337 5.51081 10.7337 4.91081 10.0003 4.91081H9.33366V3.57747C9.33366 1.73747 7.84033 0.244141 6.00033 0.244141C4.16033 0.244141 2.66699 1.73747 2.66699 3.57747V4.91081H2.00033C1.26699 4.91081 0.666992 5.51081 0.666992 6.24414V12.9108C0.666992 13.6441 1.26699 14.2441 2.00033 14.2441H6.17366C5.64699 13.4908 5.33366 12.5708 5.33366 11.5775C5.33366 8.99747 7.42033 6.91081 10.0003 6.91081ZM4.00033 3.57747C4.00033 2.47081 4.89366 1.57747 6.00033 1.57747C7.10699 1.57747 8.00033 2.47081 8.00033 3.57747V4.91081H4.00033V3.57747Z" fill="#19212F"/>
<path d="M10.0003 8.24414C8.16033 8.24414 6.66699 9.73747 6.66699 11.5775C6.66699 13.4175 8.16033 14.9108 10.0003 14.9108C11.8403 14.9108 13.3337 13.4175 13.3337 11.5775C13.3337 9.73747 11.8403 8.24414 10.0003 8.24414ZM11.3337 12.9108C11.2003 13.0441 10.9937 13.0441 10.8603 12.9108L9.76033 11.8108C9.70033 11.7508 9.66033 11.6641 9.66033 11.5775V9.91081C9.66033 9.72414 9.80699 9.57747 9.99366 9.57747C10.1803 9.57747 10.327 9.72414 10.327 9.91081V11.4375L11.327 12.4375C11.467 12.5708 11.467 12.7775 11.3337 12.9108Z" fill="#19212F"/>
</svg>
