<svg width="16" height="16" viewBox="0 0 16 16" fill="none" xmlns="http://www.w3.org/2000/svg">
<path d="M8 0C10.1948 0 11.9766 1.68235 11.9766 3.75488V5.25684H12.7715C13.6461 5.25684 14.3621 5.932 14.3623 6.75781V14.2676C14.3622 15.0935 13.6462 15.7695 12.7715 15.7695H3.22949C2.35482 15.7695 1.63876 15.0935 1.63867 14.2676V6.75781C1.63893 5.932 2.35491 5.25684 3.22949 5.25684H4.02441V3.75488C4.02441 1.68247 5.80538 0.000185145 8 0Z" fill="#CCD4E0"/>
<path d="M11.9993 5.72678H11.3327V4.40082C11.3327 2.57101 9.83935 1.08594 7.99935 1.08594C6.15935 1.08594 4.66602 2.57101 4.66602 4.40082V5.72678H3.99935C3.26602 5.72678 2.66602 6.32346 2.66602 7.05273V13.6825C2.66602 14.4118 3.26602 15.0085 3.99935 15.0085H11.9993C12.7327 15.0085 13.3327 14.4118 13.3327 13.6825V7.05273C13.3327 6.32346 12.7327 5.72678 11.9993 5.72678ZM7.99935 11.6936C7.26602 11.6936 6.66602 11.0969 6.66602 10.3676C6.66602 9.63834 7.26602 9.04166 7.99935 9.04166C8.73268 9.04166 9.33268 9.63834 9.33268 10.3676C9.33268 11.0969 8.73268 11.6936 7.99935 11.6936ZM5.99935 5.72678V4.40082C5.99935 3.30028 6.89268 2.41189 7.99935 2.41189C9.10602 2.41189 9.99935 3.30028 9.99935 4.40082V5.72678H5.99935Z" fill="#19212F"/>
</svg>
