<svg width="16" height="16" viewBox="0 0 16 16" fill="none" xmlns="http://www.w3.org/2000/svg">
<g clip-path="url(#clip0_735_3766)">
<path d="M3.66674 3.3335H12.3334C12.4294 3.36717 12.5164 3.42237 12.5878 3.49487C12.6592 3.56737 12.7131 3.65525 12.7452 3.75178C12.7774 3.8483 12.7871 3.95091 12.7735 4.05174C12.7598 4.15257 12.7233 4.24895 12.6667 4.3335L9.3334 8.00016V12.6668L6.66674 10.6668V8.00016L3.3334 4.3335C3.2768 4.24895 3.2403 4.15257 3.22669 4.05174C3.21309 3.95091 3.22274 3.8483 3.25491 3.75178C3.28709 3.65525 3.34093 3.56737 3.41231 3.49487C3.4837 3.42237 3.57073 3.36717 3.66674 3.3335Z" stroke="#5478F9" stroke-width="1.16667" stroke-linecap="round" stroke-linejoin="round"/>
</g>
<defs>
<clipPath id="clip0_735_3766">
<rect width="16" height="16" fill="white"/>
</clipPath>
</defs>
</svg>
