<svg width="84" height="74" viewBox="0 0 84 74" fill="none" xmlns="http://www.w3.org/2000/svg">
<path d="M4.46309 73.1483C3.72108 73.1483 3.05457 72.9671 2.46358 72.6048C1.8726 72.2424 1.41331 71.7646 1.08571 71.1712C0.74425 70.5821 0.556374 69.9442 0.522082 69.2575C0.48779 68.5708 0.673112 67.8906 1.07805 67.217L38.5543 2.53276C38.96 1.85915 39.4671 1.36123 40.0756 1.03901C40.6848 0.716782 41.3261 0.555664 41.9995 0.555664C42.673 0.555664 43.3143 0.716782 43.9235 1.03901C44.532 1.36123 45.0391 1.85915 45.4448 2.53276L82.921 67.217C83.326 67.8906 83.5113 68.5708 83.477 69.2575C83.4427 69.9442 83.2548 70.5821 82.9134 71.1712C82.5858 71.7646 82.1265 72.2424 81.5355 72.6048C80.9445 72.9671 80.278 73.1483 79.536 73.1483H4.46309ZM8.94803 66.5871H75.0511L41.9995 9.72378L8.94803 66.5871ZM41.9995 61.3721C43.0013 61.3721 43.8411 61.0334 44.5189 60.3562C45.1967 59.6789 45.5356 58.8398 45.5356 57.8389C45.5356 56.838 45.1967 55.9989 44.5189 55.3216C43.8411 54.6443 43.0013 54.3057 41.9995 54.3057C40.9978 54.3057 40.158 54.6443 39.4802 55.3216C38.8024 55.9989 38.4635 56.838 38.4635 57.8389C38.4635 58.8398 38.8024 59.6789 39.4802 60.3562C40.158 61.0334 40.9978 61.3721 41.9995 61.3721ZM42.0006 49.9316C42.9316 49.9316 43.7112 49.6174 44.3394 48.989C44.9683 48.3599 45.2828 47.5805 45.2828 46.651V31.3417C45.2828 30.4122 44.968 29.6332 44.3383 29.0048C43.7087 28.3757 42.9287 28.0611 41.9984 28.0611C41.0675 28.0611 40.2879 28.3757 39.6597 29.0048C39.0307 29.6332 38.7163 30.4122 38.7163 31.3417V46.651C38.7163 47.5805 39.0311 48.3599 39.6608 48.989C40.2904 49.6174 41.0704 49.9316 42.0006 49.9316Z" fill="white"/>
</svg>
