<svg width="54" height="30" viewBox="0 0 54 30" fill="none" xmlns="http://www.w3.org/2000/svg">
<path d="M13.5702 5.65182C5.90702 9.0859 0.569867 16.7804 0.569867 25.72C0.567173 27.0876 0.692683 28.4444 0.940716 29.7739C0.57121 29.9462 46.9978 29.9462 46.9978 29.9462C50.2954 27.2961 50.9803 25.2904 52.6338 22.1215C54.983 17.6183 53.7099 11.4511 53.1228 10.1787C52.5357 8.9063 49.6966 8.71023 50.284 12.5281C50.8713 16.346 50.6755 17.7165 48.8155 22.6112C47.8209 25.2386 46.1724 26.3429 44.8645 26.801C44.8249 26.8145 44.7826 26.8182 44.7412 26.8117C44.6998 26.8051 44.6607 26.7886 44.6271 26.7635C44.5936 26.7385 44.5666 26.7056 44.5486 26.6678C44.5306 26.63 44.5221 26.5883 44.5239 26.5465C44.5357 26.2724 44.5396 25.9984 44.5396 25.7203C44.5396 13.5815 34.6952 3.73734 22.5525 3.73734C22.251 3.73734 21.9495 3.74514 21.6479 3.75688C21.5833 3.75798 21.5205 3.7349 21.472 3.69217C21.4235 3.64944 21.3926 3.59013 21.3856 3.52587C21.3034 2.8093 21.0643 2.1084 20.8609 1.60718C20.8404 1.55841 20.8054 1.51715 20.7606 1.48911C20.7157 1.46107 20.6633 1.44761 20.6105 1.45058C20.5577 1.45356 20.5071 1.47282 20.4657 1.50572C20.4243 1.53862 20.3942 1.58355 20.3793 1.63431C20.0661 2.58582 19.3377 3.47472 18.7621 4.06595C18.5145 4.32266 18.2532 4.5658 17.9794 4.79432C18.0028 4.72771 18.0185 4.66118 18.0381 4.59457C18.0577 4.50844 18.0772 4.42623 18.0929 4.34003C18.1008 4.28909 18.1046 4.23822 18.1125 4.18736C18.3044 2.66022 17.4311 1.21136 16.8673 0.451726C16.8374 0.410768 16.7961 0.37963 16.7484 0.362296C16.7008 0.344963 16.6492 0.342219 16.6 0.354415C16.5508 0.36661 16.5064 0.393192 16.4724 0.430762C16.4384 0.468333 16.4164 0.515184 16.4092 0.565331C16.1898 2.04546 14.7527 4.15582 13.5741 5.64795L13.5738 5.64946L13.573 5.65073L13.5717 5.65156L13.5702 5.65182Z" fill="#72BB25"/>
<ellipse cx="25.6689" cy="19.7842" rx="1.88527" ry="2.1546" transform="rotate(-27.707 25.6689 19.7842)" fill="white"/>
<ellipse cx="18.215" cy="22.4378" rx="1.88527" ry="2.1546" transform="rotate(-9.56041 18.215 22.4378)" fill="white"/>
<path d="M14.9925 15.0002C15.059 15.9336 14.5533 18.2402 11.998 20.0002" stroke="white" stroke-linecap="round"/>
<path d="M23.5559 13.1709C24.0734 13.9538 25.8862 15.4783 28.9977 15.313" stroke="white" stroke-linecap="round"/>
<path d="M26.4246 27.6264C25.863 27.4695 24.3914 27.4914 22.9978 28.8353" stroke="white" stroke-linecap="round"/>
</svg>
