<svg width="146" height="147" viewBox="0 0 146 147" fill="none" xmlns="http://www.w3.org/2000/svg">
<path opacity="0.6" d="M2.23403 123.747C7.78283 137.287 16.8302 140.106 23.1913 137.287C35.4933 131.837 67.4496 125.747 100.27 140.062C143.739 159.021 152.987 130.416 139.114 101.481C125.241 72.5463 120.539 43.2853 136.532 27.1641C152.525 11.0429 131.596 -14.1765 94.43 12.0751C70.4116 29.0399 52.7849 25.2623 43.3194 20.4665C34.3985 15.9465 24.4774 11.2212 15.1822 14.9107C3.90357 19.3878 -0.540575 29.0943 16.6194 50.7788C40.9365 81.5075 -10.2044 93.3963 2.23403 123.747Z" fill="#273346"/>
<path d="M89.5185 31.7611H49.3646L24.8262 57.7867H111.182L89.5185 31.7611Z" fill="#18212E"/>
<path d="M33.0056 21.3508L49.3646 31.7612L24.8261 57.7868L6.23633 43.6585L33.0056 21.3508Z" fill="#3C4D68"/>
<path d="M105.877 21.3508L89.5176 31.7612L111.182 57.7868L132.646 43.6585L105.877 21.3508Z" fill="#3C4D68"/>
<path d="M24.8262 57.7869H111.182V124.2C111.182 124.335 111.129 124.465 111.033 124.561C110.937 124.656 110.808 124.71 110.672 124.71H25.3362C25.2009 124.71 25.0712 124.656 24.9755 124.561C24.8799 124.465 24.8262 124.335 24.8262 124.2V57.7869Z" fill="#3C4D68"/>
</svg>
