<svg width="145" height="146" viewBox="0 0 145 146" fill="none" xmlns="http://www.w3.org/2000/svg">
<path opacity="0.6" d="M1.98208 123.052C7.53088 136.592 16.5783 139.411 22.9393 136.592C35.2413 131.141 67.1976 125.051 100.018 139.366C143.487 158.326 152.735 129.721 138.862 100.786C124.989 71.8511 120.287 42.5901 136.28 26.4689C152.273 10.3477 131.344 -14.8717 94.178 11.3799C70.1597 28.3447 52.533 24.5671 43.0675 19.7713C34.1465 15.2513 24.2254 10.526 14.9303 14.2155C3.65161 18.6926 -0.792528 28.3991 16.3674 50.0836C40.6845 80.8123 -10.4563 92.7011 1.98208 123.052Z" fill="#F9FAFB"/>
<path d="M89.2675 31.0658H49.1136L24.5752 57.0914H110.931L89.2675 31.0658Z" fill="#9BA6BC"/>
<path d="M32.7546 20.6555L49.1136 31.0658L24.5752 57.0914L5.98535 42.9632L32.7546 20.6555Z" fill="#CCD4E0"/>
<path d="M105.627 20.6555L89.2676 31.0658L110.932 57.0914L132.396 42.9632L105.627 20.6555Z" fill="#CCD4E0"/>
<path d="M24.5752 57.0916H110.931V123.505C110.931 123.64 110.878 123.77 110.782 123.865C110.686 123.961 110.557 124.015 110.421 124.015H25.0852C24.9499 124.015 24.8202 123.961 24.7246 123.865C24.6289 123.77 24.5752 123.64 24.5752 123.505V57.0916Z" fill="#CCD4E0"/>
</svg>
