<svg width="18" height="18" viewBox="0 0 18 18" fill="none" xmlns="http://www.w3.org/2000/svg">
<path d="M9 1C13.4183 1 17 4.58172 17 9C17 13.4183 13.4183 17 9 17C4.58172 17 1 13.4183 1 9C1 4.58172 4.58172 1 9 1Z" fill="#FFC94D"/>
<path d="M9 1V1.5C13.1421 1.5 16.5 4.85786 16.5 9H17H17.5C17.5 4.30558 13.6944 0.5 9 0.5V1ZM17 9H16.5C16.5 13.1421 13.1421 16.5 9 16.5V17V17.5C13.6944 17.5 17.5 13.6944 17.5 9H17ZM9 17V16.5C4.85786 16.5 1.5 13.1421 1.5 9H1H0.5C0.5 13.6944 4.30558 17.5 9 17.5V17ZM1 9H1.5C1.5 4.85786 4.85786 1.5 9 1.5V1V0.5C4.30558 0.5 0.5 4.30558 0.5 9H1Z" fill="#FFFDF0"/>
<path d="M9.0303 4.89393V3.35547L6.97902 5.40675L9.0303 7.45803V5.91957C10.7277 5.91957 12.1072 7.29906 12.1072 8.99649C12.1072 9.51444 11.979 10.0068 11.7482 10.4324L12.497 11.1811C12.897 10.5503 13.1329 9.80162 13.1329 8.99649C13.1329 6.72983 11.297 4.89393 9.0303 4.89393ZM9.0303 12.0734C7.33286 12.0734 5.95338 10.6939 5.95338 8.99649C5.95338 8.47855 6.08158 7.98624 6.31235 7.5606L5.56363 6.81188C5.16363 7.44265 4.92773 8.19137 4.92773 8.99649C4.92773 11.2632 6.76363 13.0991 9.0303 13.0991V14.6375L11.0816 12.5862L9.0303 10.535V12.0734Z" fill="#19212F"/>
</svg>
