<svg width="70" height="70" viewBox="0 0 70 70" fill="none" xmlns="http://www.w3.org/2000/svg">
<path d="M64.0497 52.4432L42.8934 10.1619C42.1128 8.61006 40.9163 7.30562 39.4374 6.39414C37.9586 5.48266 36.2556 5 34.5184 5C32.7813 5 31.0783 5.48266 29.5995 6.39414C28.1206 7.30562 26.9241 8.61006 26.1434 10.1619L4.98719 52.4432C4.27292 53.8739 3.93649 55.4635 4.00988 57.061C4.08327 58.6584 4.56405 60.2105 5.40651 61.5697C6.24896 62.9289 7.42508 64.05 8.82304 64.8264C10.221 65.6029 11.7943 66.0088 13.3934 66.0057H55.6435C57.2426 66.0088 58.8159 65.6029 60.2139 64.8264C61.6118 64.05 62.7879 62.9289 63.6304 61.5697C64.4728 60.2105 64.9536 58.6584 65.027 57.061C65.1004 55.4635 64.764 53.8739 64.0497 52.4432ZM36.7372 52.5994C36.1383 53.1705 35.3458 53.4942 34.5184 53.5057C34.1101 53.5007 33.7066 53.4158 33.3309 53.2557C32.9473 53.1069 32.5969 52.8839 32.2997 52.5994C32.0068 52.3089 31.7743 51.9633 31.6157 51.5825C31.457 51.2017 31.3753 50.7932 31.3753 50.3807C31.3753 49.9681 31.457 49.5597 31.6157 49.1789C31.7743 48.7981 32.0068 48.4524 32.2997 48.1619C32.5969 47.8774 32.9473 47.6544 33.3309 47.5057C33.9 47.2664 34.5273 47.201 35.1335 47.3178C35.7397 47.4346 36.2977 47.7283 36.7372 48.1619C37.0301 48.4524 37.2626 48.7981 37.4212 49.1789C37.5799 49.5597 37.6616 49.9681 37.6616 50.3807C37.6616 50.7932 37.5799 51.2017 37.4212 51.5825C37.2626 51.9633 37.0301 52.3089 36.7372 52.5994ZM37.6434 41.0057C37.6434 41.8345 37.3142 42.6293 36.7282 43.2154C36.1421 43.8014 35.3472 44.1307 34.5184 44.1307C33.6896 44.1307 32.8948 43.8014 32.3087 43.2154C31.7227 42.6293 31.3934 41.8345 31.3934 41.0057V25.3807C31.3934 24.5519 31.7227 23.757 32.3087 23.171C32.8948 22.5849 33.6896 22.2557 34.5184 22.2557C35.3472 22.2557 36.1421 22.5849 36.7282 23.171C37.3142 23.757 37.6434 24.5519 37.6434 25.3807V41.0057Z" fill="#19212F"/>
</svg>
