<svg width="24" height="24" viewBox="0 0 24 24" fill="none" xmlns="http://www.w3.org/2000/svg">
<path d="M20 3H19V2C19 1.45 18.55 1 18 1C17.45 1 17 1.45 17 2V3H7V2C7 1.45 6.55 1 6 1C5.45 1 5 1.45 5 2V3H4C2.9 3 2 3.9 2 5V21C2 22.1 2.9 23 4 23H20C21.1 23 22 22.1 22 21V5C22 3.9 21.1 3 20 3ZM19 21H5C4.45 21 4 20.55 4 20V8H20V20C20 20.55 19.55 21 19 21Z" fill="#19212F"/>
<path d="M11.9997 10.9993V12.0435C11.9997 12.306 12.3147 12.4343 12.4955 12.2477L14.123 10.6202C14.2397 10.5035 14.2397 10.3227 14.123 10.206L12.4955 8.5785C12.3147 8.39767 11.9997 8.526 11.9997 8.7885V9.83267C9.42134 9.83267 7.33301 11.921 7.33301 14.4993C7.33301 15.106 7.44967 15.6893 7.66551 16.2202C7.82301 16.611 8.32467 16.716 8.62217 16.4185C8.77967 16.261 8.84384 16.0218 8.75634 15.8118C8.58717 15.4093 8.49967 14.9602 8.49967 14.4993C8.49967 12.5685 10.0688 10.9993 11.9997 10.9993ZM15.3772 12.5802C15.2197 12.7377 15.1555 12.9827 15.243 13.1868C15.4063 13.5952 15.4997 14.0385 15.4997 14.4993C15.4997 16.4302 13.9305 17.9993 11.9997 17.9993V16.9552C11.9997 16.6927 11.6847 16.5643 11.5038 16.751L9.87634 18.3785C9.75967 18.4952 9.75967 18.676 9.87634 18.7927L11.5038 20.4202C11.6847 20.601 11.9997 20.4727 11.9997 20.216V19.166C14.578 19.166 16.6663 17.0777 16.6663 14.4993C16.6663 13.8927 16.5497 13.3093 16.3338 12.7785C16.1763 12.3877 15.6747 12.2827 15.3772 12.5802Z" fill="#19212F"/>
</svg>
