<svg width="12" height="14" viewBox="0 0 12 14" fill="none" xmlns="http://www.w3.org/2000/svg">
<path d="M10.0003 4.66667H9.33366V3.33333C9.33366 1.49333 7.84032 0 6.00033 0C4.16033 0 2.66699 1.49333 2.66699 3.33333V4.66667H2.00033C1.26699 4.66667 0.666992 5.26667 0.666992 6V12.6667C0.666992 13.4 1.26699 14 2.00033 14H10.0003C10.7337 14 11.3337 13.4 11.3337 12.6667V6C11.3337 5.26667 10.7337 4.66667 10.0003 4.66667ZM6.00033 10.6667C5.26699 10.6667 4.66699 10.0667 4.66699 9.33333C4.66699 8.6 5.26699 8 6.00033 8C6.73366 8 7.33366 8.6 7.33366 9.33333C7.33366 10.0667 6.73366 10.6667 6.00033 10.6667ZM4.00033 4.66667V3.33333C4.00033 2.22667 4.89366 1.33333 6.00033 1.33333C7.10699 1.33333 8.00033 2.22667 8.00033 3.33333V4.66667H4.00033Z" fill="#19212F"/>
</svg>
