<svg width="16" height="16" viewBox="0 0 16 16" fill="none" xmlns="http://www.w3.org/2000/svg">
<g clip-path="url(#clip0_754_6333)">
<path d="M14.0001 9.33333L12.0001 7.33333H7.33341C7.1566 7.33333 6.98703 7.2631 6.86201 7.13807C6.73699 7.01305 6.66675 6.84348 6.66675 6.66667V2.66667C6.66675 2.48986 6.73699 2.32029 6.86201 2.19526C6.98703 2.07024 7.1566 2 7.33341 2H13.3334C13.5102 2 13.6798 2.07024 13.8048 2.19526C13.9298 2.32029 14.0001 2.48986 14.0001 2.66667V9.33333Z" stroke="#79889F" stroke-width="1.16667" stroke-linecap="round" stroke-linejoin="round"/>
<path d="M9.33333 9.99984V11.3332C9.33333 11.51 9.2631 11.6796 9.13807 11.8046C9.01305 11.9296 8.84348 11.9998 8.66667 11.9998H4L2 13.9998V7.33317C2 7.15636 2.07024 6.98679 2.19526 6.86177C2.32029 6.73674 2.48986 6.6665 2.66667 6.6665H4" stroke="#79889F" stroke-width="1.16667" stroke-linecap="round" stroke-linejoin="round"/>
</g>
<defs>
<clipPath id="clip0_754_6333">
<rect width="16" height="16" fill="white"/>
</clipPath>
</defs>
</svg>
