<svg width="16" height="16" viewBox="0 0 16 16" fill="none" xmlns="http://www.w3.org/2000/svg">
<g clip-path="url(#clip0_802_11989)">
<path d="M14 9.33333L12 7.33333H7.33329C7.15648 7.33333 6.98691 7.2631 6.86189 7.13807C6.73686 7.01305 6.66663 6.84348 6.66663 6.66667V2.66667C6.66663 2.48986 6.73686 2.32029 6.86189 2.19526C6.98691 2.07024 7.15648 2 7.33329 2H13.3333C13.5101 2 13.6797 2.07024 13.8047 2.19526C13.9297 2.32029 14 2.48986 14 2.66667V9.33333Z" stroke="#3D4964" stroke-width="1.16667" stroke-linecap="round" stroke-linejoin="round"/>
<path d="M9.33333 10.0001V11.3334C9.33333 11.5102 9.2631 11.6798 9.13807 11.8048C9.01305 11.9298 8.84348 12.0001 8.66667 12.0001H4L2 14.0001V7.33341C2 7.1566 2.07024 6.98703 2.19526 6.86201C2.32029 6.73699 2.48986 6.66675 2.66667 6.66675H4" stroke="#3D4964" stroke-width="1.16667" stroke-linecap="round" stroke-linejoin="round"/>
</g>
<defs>
<clipPath id="clip0_802_11989">
<rect width="16" height="16" fill="white"/>
</clipPath>
</defs>
</svg>
