<svg width="20" height="20" viewBox="0 0 20 20" fill="none" xmlns="http://www.w3.org/2000/svg">
<path d="M8.6694 16.6367H3.8444V8.30339H15.5111V10.7701C15.5111 11.5117 16.4111 11.8867 16.9361 11.3617C17.0944 11.2034 17.1777 10.9951 17.1777 10.7701V4.97005C17.1777 4.05339 16.4277 3.30339 15.5111 3.30339H14.6777V2.47005C14.6777 2.01172 14.3027 1.63672 13.8444 1.63672C13.3861 1.63672 13.0111 2.01172 13.0111 2.47005V3.30339H6.3444V2.47005C6.3444 2.01172 5.9694 1.63672 5.51107 1.63672C5.05273 1.63672 4.67773 2.01172 4.67773 2.47005V3.30339H3.8444C2.9194 3.30339 2.18607 4.05339 2.18607 4.97005L2.17773 16.6367C2.17773 17.5534 2.9194 18.3034 3.8444 18.3034H8.6694C9.41107 18.3034 9.78607 17.4034 9.26107 16.8784C9.10273 16.7284 8.8944 16.6367 8.6694 16.6367ZM11.1027 15.1867C11.4277 14.8617 11.9527 14.8617 12.2777 15.1867L13.4527 16.3617L16.4027 13.4117C16.7277 13.0867 17.2527 13.0867 17.5777 13.4117C17.9027 13.7367 17.9027 14.2617 17.5777 14.5867L14.0444 18.1201C13.7194 18.4451 13.1944 18.4451 12.8694 18.1201L11.1027 16.3534C10.7777 16.0367 10.7777 15.5117 11.1027 15.1867ZM9.08607 13.5451C8.76107 13.8701 8.23607 13.8701 7.91107 13.5451L7.17773 12.8117L6.4444 13.5451C6.1194 13.8701 5.5944 13.8701 5.2694 13.5451C4.9444 13.2201 4.9444 12.6951 5.2694 12.3701L6.00273 11.6367L5.2694 10.9034C4.9444 10.5784 4.9444 10.0534 5.2694 9.72839C5.5944 9.40339 6.1194 9.40339 6.4444 9.72839L7.17773 10.4617L7.91107 9.72839C8.23607 9.40339 8.76107 9.40339 9.08607 9.72839C9.41107 10.0534 9.41107 10.5784 9.08607 10.9034L8.35273 11.6367L9.08607 12.3701C9.41107 12.6951 9.41107 13.2201 9.08607 13.5451Z" fill="#E8174F"/>
</svg>
