<svg width="101" height="100" viewBox="0 0 101 100" fill="none" xmlns="http://www.w3.org/2000/svg">
<path d="M27.7839 44.4354C26.8479 43.9675 26.0138 43.2757 25.9934 42.2381C25.9934 41.526 25.9934 40.8139 26.0138 40.1017C23.6536 40.529 21.2935 41.0377 18.9944 41.6887C16.8785 42.2788 14.7421 42.9909 12.7483 43.9268C11.1002 44.6999 7.74316 46.5107 7.74316 48.7081C7.74316 50.3764 9.73706 51.8006 10.9985 52.5534C13.6028 54.0997 16.9192 55.1984 19.91 55.9715C21.2325 51.4344 24.3047 47.589 27.7839 44.4354ZM20.7035 48.5249C20.0524 51.9634 12.8296 51.9634 12.1989 48.5249C12.1582 48.2604 12.1582 47.9756 12.1989 47.6908C12.85 44.2523 20.0728 44.2523 20.7035 47.6908C20.7442 47.9553 20.7442 48.2401 20.7035 48.5249Z" fill="#97A5BB"/>
<path d="M44.4675 46.8973C41.6801 50.3764 39.4217 54.4049 38.9537 58.881C42.7991 59.1658 46.6648 59.2879 50.5102 59.2879C54.3556 59.2879 58.2213 59.1658 62.0667 58.881C61.5987 54.4049 59.3403 50.3764 56.5529 46.8973C52.5244 47.06 48.4756 47.06 44.4675 46.8973ZM54.8846 52.8383C54.9456 53.1231 54.9456 53.408 54.8846 53.6725C54.2335 57.2126 46.7869 57.2126 46.1155 53.6725C46.0544 53.3876 46.0544 53.1028 46.1155 52.8383C46.7869 49.2981 54.2335 49.2981 54.8846 52.8383Z" fill="#97A5BB"/>
<path d="M28.3943 42.5433C28.8419 42.8078 29.4115 43.0112 29.9202 43.174C33.9894 44.4558 39.7676 44.761 44.0606 44.9441C48.3536 45.1272 52.6669 45.1272 56.9599 44.9441C61.2325 44.761 67.0107 44.4558 71.1003 43.174C71.6089 43.0112 72.1582 42.8078 72.6262 42.5433C73.4807 42.0346 73.0535 39.8983 73.0128 38.9827C71.1409 2.90948 29.8999 2.90948 28.028 38.9827C27.967 39.8983 27.5397 42.0346 28.3943 42.5433ZM33.5011 30.173C34.3353 27.5687 35.4746 25.3103 36.8174 23.4181C38.2417 21.3835 39.9304 19.7559 41.7412 18.5351C42.1888 18.2299 42.7991 18.352 43.084 18.7996C43.3892 19.2472 43.2671 19.8576 42.8195 20.1424C41.1918 21.2208 39.7066 22.6857 38.4044 24.5168C37.1837 26.2666 36.1257 28.3418 35.3525 30.7426C35.1898 31.2513 34.6404 31.5361 34.1318 31.3734C33.6231 31.2309 33.3383 30.6816 33.5011 30.173Z" fill="#97A5BB"/>
<path d="M30.8357 52.5941C31.8123 53.1231 33.3586 53.1231 34.3352 52.5941C35.1287 52.1668 35.1287 51.6989 34.3352 51.2716C33.3586 50.7426 31.8123 50.7426 30.8357 51.2716C30.0626 51.6989 30.0626 52.1668 30.8357 52.5941Z" fill="#97A5BB"/>
<path d="M48.6791 52.5331C47.8449 53.0011 47.8449 53.5097 48.6791 53.9573C49.6964 54.5066 51.3241 54.5066 52.3414 53.9573C53.1755 53.4894 53.1755 52.9807 52.3414 52.5331C51.3241 51.9838 49.6964 51.9838 48.6791 52.5331Z" fill="#97A5BB"/>
<path d="M18.1805 47.4466C17.2039 46.9176 15.6577 46.9176 14.6811 47.4466C13.8876 47.8739 13.8876 48.3215 14.6811 48.7691C15.6577 49.2981 17.2039 49.2981 18.1805 48.7691C18.974 48.3215 18.974 47.8739 18.1805 47.4466Z" fill="#97A5BB"/>
<path d="M37.0006 58.7386C37.4482 54.3235 39.4624 50.3357 42.087 46.7956C38.2213 46.5921 33.5825 46.2462 29.8592 45.1882C26.4004 48.1994 23.145 51.9838 21.8022 56.4395C23.5723 56.8464 25.3627 57.2126 27.1532 57.4975C30.4085 58.0468 33.7045 58.4537 37.0006 58.7386ZM28.3332 51.5158C28.9843 48.0773 36.2071 48.0773 36.8378 51.5158C36.8785 51.7803 36.8785 52.0651 36.8378 52.35C36.1867 55.7884 28.9639 55.7884 28.3332 52.35C28.2722 52.0651 28.2722 51.8006 28.3332 51.5158Z" fill="#97A5BB"/>
<path d="M70.1643 51.2716C69.1877 50.7426 67.6414 50.7426 66.6648 51.2716C65.8713 51.6989 65.8713 52.1668 66.6648 52.5941C67.6414 53.1231 69.1877 53.1231 70.1643 52.5941C70.9578 52.1668 70.9578 51.6989 70.1643 51.2716Z" fill="#97A5BB"/>
<path d="M86.319 47.4466C85.3424 46.9176 83.7961 46.9176 82.8195 47.4466C82.026 47.8739 82.026 48.3215 82.8195 48.7691C83.7961 49.2981 85.3424 49.2981 86.319 48.7691C87.0921 48.3215 87.0921 47.8739 86.319 47.4466Z" fill="#97A5BB"/>
<path d="M71.141 45.1882C67.438 46.2462 62.7788 46.5718 58.9131 46.7956C61.5377 50.3357 63.5519 54.3235 63.9996 58.7386C67.2956 58.4537 70.5916 58.0468 73.847 57.4975C75.6374 57.1923 77.4278 56.8464 79.1979 56.4395C77.8551 51.9838 74.6201 48.1994 71.141 45.1882ZM72.6669 52.35C72.0158 55.7884 64.793 55.7884 64.1623 52.35C64.1216 52.0855 64.1216 51.8006 64.1623 51.5158C64.8134 48.0773 72.0362 48.0773 72.6669 51.5158C72.7279 51.8006 72.7279 52.0651 72.6669 52.35Z" fill="#97A5BB"/>
<path d="M32.9314 84.293H26.0748C24.4065 84.293 24.4065 88.0163 26.0748 88.0163H32.9314C34.5794 88.0163 34.5794 84.293 32.9314 84.293Z" fill="#97A5BB"/>
<path d="M88.2722 43.9268C86.2783 42.9909 84.142 42.2788 82.026 41.6887C79.7269 41.0377 77.3668 40.529 75.0067 40.1017C75.027 40.8139 75.027 41.526 75.027 42.2381C75.0067 43.2757 74.1725 43.9675 73.2366 44.4354C76.6954 47.589 79.7676 51.4547 81.1308 55.9715C84.142 55.178 87.4583 54.0997 90.0423 52.5534C91.3037 51.8006 93.2976 50.3764 93.2976 48.7081C93.2773 46.5107 89.9202 44.6999 88.2722 43.9268ZM88.8215 48.5249C88.1704 51.9634 80.9477 51.9634 80.3169 48.5249C80.2762 48.2604 80.2762 47.9756 80.3169 47.6908C80.968 44.2523 88.1908 44.2523 88.8215 47.6908C88.8826 47.9553 88.8826 48.2401 88.8215 48.5249Z" fill="#97A5BB"/>
<path d="M28.5367 82.3398H31.8327L35.8205 67.4263C34.8236 67.0194 33.847 66.5311 32.911 66.0021L28.5367 82.3398Z" fill="#97A5BB"/>
<path d="M72.1989 59.7355C69.2081 60.1831 66.1969 60.5087 63.1654 60.7528C58.9538 61.0784 54.7218 61.2411 50.4899 61.2411C46.2579 61.2411 42.026 61.0784 37.8144 60.7528C34.8032 60.5087 31.792 60.1831 28.7808 59.7355C30.7544 62.706 34.0504 64.6796 37.3261 65.9207C44.9965 68.8301 55.7798 68.8301 63.4705 65.9817C66.8276 64.7406 70.1847 62.7467 72.1989 59.7355Z" fill="#97A5BB"/>
<path d="M74.7828 84.354H67.9263C66.2579 84.354 66.2579 88.0773 67.9263 88.0773H74.7828C76.4308 88.0773 76.4308 84.354 74.7828 84.354Z" fill="#97A5BB"/>
<path d="M72.3007 82.4008L67.9263 66.0834C66.9904 66.6124 66.0138 67.0804 65.0168 67.4873L69.0046 82.4008H72.3007Z" fill="#97A5BB"/>
</svg>
