<svg width="20" height="20" viewBox="0 0 20 20" fill="none" xmlns="http://www.w3.org/2000/svg">
<path d="M8.7166 4.72493V2.98327C8.1666 3.12494 7.6416 3.3416 7.14993 3.60827L8.39993 4.85827C8.50827 4.8166 8.60827 4.7666 8.7166 4.72493ZM17.0499 9.43327C17.0499 7.5916 16.2916 5.93327 15.0833 4.73327L17.0499 2.7666H12.0499V7.7666L13.9166 5.89994C14.8166 6.80827 15.3833 8.04993 15.3833 9.43327C15.3833 10.1416 15.2249 10.8083 14.9583 11.4166L16.2083 12.6666C16.7416 11.7166 17.0499 10.6083 17.0499 9.43327ZM3.9416 2.7666L2.7666 3.9416L4.73327 5.90827C4.0916 6.92493 3.7166 8.13327 3.7166 9.43327C3.7166 11.2749 4.47494 12.9333 5.68327 14.1333L3.7166 16.0999H8.7166V11.0999L6.84994 12.9666C5.94994 12.0583 5.38327 10.8166 5.38327 9.43327C5.38327 8.59993 5.5916 7.8166 5.94993 7.12493L12.6833 13.8583C12.4749 13.9666 12.2666 14.0583 12.0499 14.1416V15.8833C12.7166 15.7083 13.3416 15.4333 13.9083 15.0833L16.0583 17.2333L17.2333 16.0583L3.9416 2.7666Z" fill="#97A5BB"/>
</svg>
