<svg width="24" height="24" viewBox="0 0 24 24" fill="none" xmlns="http://www.w3.org/2000/svg">
<mask id="mask0_28337_176752" style="mask-type:alpha" maskUnits="userSpaceOnUse" x="0" y="0" width="24" height="24">
<rect width="24" height="24" fill="white"/>
</mask>
<g mask="url(#mask0_28337_176752)">
<path d="M16.6464 7.0541L18.0864 8.4941L13.2064 13.3741L9.91637 10.0841C9.52637 9.6941 8.89637 9.6941 8.50637 10.0841L2.50637 16.0941C2.11637 16.4841 2.11637 17.1141 2.50637 17.5041C2.89637 17.8941 3.52637 17.8941 3.91637 17.5041L9.20637 12.2041L12.4964 15.4941C12.8864 15.8841 13.5164 15.8841 13.9064 15.4941L19.4964 9.9141L20.9364 11.3541C21.2464 11.6641 21.7864 11.4441 21.7864 11.0041V6.7041C21.7964 6.4241 21.5764 6.2041 21.2964 6.2041H17.0064C16.5564 6.2041 16.3364 6.7441 16.6464 7.0541Z" fill="white"/>
</g>
</svg>
