<?xml version="1.0" encoding="UTF-8" standalone="no"?>
<svg
   width="171"
   height="48"
   viewBox="0 0 171 48"
   fill="none"
   version="1.1"
   id="svg6"
   sodipodi:docname="Frame 4 1.svg"
   inkscape:version="1.1.2 (0a00cf5339, 2022-02-04)"
   xmlns:inkscape="http://www.inkscape.org/namespaces/inkscape"
   xmlns:sodipodi="http://sodipodi.sourceforge.net/DTD/sodipodi-0.dtd"
   xmlns="http://www.w3.org/2000/svg"
   xmlns:svg="http://www.w3.org/2000/svg">
  <defs
     id="defs10" />
  <sodipodi:namedview
     id="namedview8"
     pagecolor="#000000"
     bordercolor="#666666"
     borderopacity="1.0"
     inkscape:pageshadow="2"
     inkscape:pageopacity="0"
     inkscape:pagecheckerboard="0"
     showgrid="false"
     inkscape:zoom="3.9122807"
     inkscape:cx="64.795964"
     inkscape:cy="10.352018"
     inkscape:window-width="1846"
     inkscape:window-height="1016"
     inkscape:window-x="74"
     inkscape:window-y="395"
     inkscape:window-maximized="1"
     inkscape:current-layer="svg6" />
  <path
     class="cls-1"
     d="m 58.161737,5.8289042 a 0.90058117,0.90058117 0 0 1 0.900582,0.9005812 V 32.176837 c 0,7.272098 -5.788203,13.138993 -12.725548,13.138993 -8.418749,0 -11.416523,-6.043014 -12.420774,-8.020293 h 6.154176 c 0,0 1.345254,2.872867 5.799441,2.872867 4.454192,0 7.96159,-4.034505 7.96159,-7.574376 v -2.997775 c -1.300283,0.890589 -4.431708,2.55935 -7.96159,2.55935 -7.569375,0 -13.192699,-6.245364 -13.192699,-12.740539 V 6.7294854 A 0.90058117,0.90058117 0 0 1 33.5775,5.8289042 h 3.472419 a 0.90058117,0.90058117 0 0 1 0.900576,0.9005812 V 18.713086 c 0,5.512156 3.914594,8.206406 8.079001,8.206406 4.454197,0 7.801708,-3.910845 7.801708,-8.100236 V 6.7294854 a 0.90058117,0.90058117 0 0 1 0.90058,-0.9005812 z"
     id="path416"
     style="fill:#ffffff;stroke-width:0.124907" />
  <path
     class="cls-1"
     d="m 76.007236,5.7864354 c -5.855652,0 -13.293879,4.1569136 -13.293879,12.3658176 0,7.282092 4.725242,13.958385 10.720787,13.958385 h 14.863962 a 0.84437293,0.84437293 0 0 0 0.844373,-0.844372 V 17.671358 C 89.143923,12.154208 83.926355,5.7864354 76.007236,5.7864354 Z M 79.833146,23.4758 c 0.734452,0.87435 3.710994,4.581597 3.710994,4.581597 L 70.356428,24.412602 c -3.516134,-0.971779 -4.67652,-5.37101 -2.097191,-7.954091 l 5.278584,-5.273583 c 2.581827,-2.5818339 6.994803,-1.4152006 7.95659,2.105935 l 3.56485,12.990352 c 0,0 -2.78543,-2.123421 -4.54412,-3.534876 -2.298295,-1.847376 -1.913584,-4.421715 -3.789688,-4.421715 a 1.4776526,1.4776526 0 0 0 -1.477658,1.477655 c -0.0064,1.936061 2.518132,1.186616 4.585351,3.673521 z"
     id="path418"
     style="fill:#ffffff;stroke-width:0.124907" />
  <path
     class="cls-1"
     d="m 126.92817,5.6278031 c 7.24462,-0.083682 13.18021,5.9231029 13.18021,13.1714679 v 12.724302 a 0.51087061,0.51087061 0 0 1 -0.51085,0.50962 h -4.73026 V 18.91044 a 7.9353561,7.9353561 0 0 0 -7.93536,-7.935357 v 0 a 7.9353561,7.9353561 0 0 0 -7.93535,7.935357 v 12.61563 a 0.51087061,0.51087061 0 0 1 -0.51088,0.509623 h -4.72773 V 18.91044 a 7.9353561,7.9353561 0 0 0 -7.93536,-7.935357 v 0 a 7.9353561,7.9353561 0 0 0 -7.936602,7.935357 v 12.61563 a 0.50962153,0.50962153 0 0 1 -0.509626,0.509623 H 92.648628 V 18.649383 A 13.02033,13.02033 0 0 1 105.66521,5.6278031 c 2.84664,0 6.96858,0.9143221 10.71579,5.1898969 3.73847,-3.6410457 6.91861,-5.147427 10.54717,-5.1898969 z"
     id="path420"
     style="fill:#ffffff;stroke-width:0.124907" />
</svg>
