<svg width="24" height="24" viewBox="0 0 24 24" fill="none" xmlns="http://www.w3.org/2000/svg">
<g clip-path="url(#clip0_13182_108049)">
<g clip-path="url(#clip1_13182_108049)">
<path fill-rule="evenodd" clip-rule="evenodd" d="M21.8101 5.70999C21.8301 5.76999 21.8501 5.82999 21.8501 5.88999C21.8501 5.92999 21.8701 5.99999 21.8701 5.99999V18.99C21.8701 19 21.8676 19.0075 21.8651 19.015C21.8626 19.0225 21.8601 19.03 21.8601 19.04C21.8601 19.1 21.8501 19.15 21.8301 19.21C21.824 19.2283 21.8189 19.2466 21.8138 19.2645C21.8022 19.3056 21.791 19.3452 21.7701 19.38C21.7501 19.4 21.7501 19.41 21.7501 19.43L21.7501 19.43C21.7101 19.49 21.6701 19.55 21.6201 19.6L21.6101 19.61C21.5301 19.69 21.4501 19.74 21.3601 19.78C21.3554 19.7824 21.3501 19.7853 21.3446 19.7884C21.3265 19.7983 21.3054 19.81 21.2901 19.81C21.1901 19.85 21.0901 19.87 20.9901 19.87C20.8901 19.87 20.7901 19.85 20.6901 19.81C20.6801 19.805 20.6676 19.8 20.6551 19.795C20.6426 19.79 20.6301 19.785 20.6201 19.78L20.5601 19.75C18.1001 18.33 14.9101 18.33 12.4401 19.75C12.4268 19.7633 12.4135 19.7678 12.4001 19.7722C12.3935 19.7744 12.3868 19.7767 12.3801 19.78C12.3746 19.7827 12.3691 19.7862 12.3634 19.7899C12.3484 19.7995 12.3319 19.81 12.3101 19.81C12.1201 19.88 11.9101 19.88 11.7101 19.81C11.7001 19.805 11.6876 19.8 11.6751 19.795C11.6626 19.79 11.6501 19.785 11.6401 19.78L11.5801 19.75C9.12014 18.33 5.93014 18.33 3.46014 19.75C3.44014 19.77 3.43014 19.77 3.41014 19.77C3.37537 19.7909 3.33577 19.802 3.29469 19.8137C3.2767 19.8187 3.25842 19.8239 3.24014 19.83C3.21876 19.8336 3.19864 19.8384 3.1789 19.8431C3.14323 19.8517 3.10876 19.86 3.07014 19.86C3.06014 19.87 3.04014 19.87 3.02014 19.87C3.00014 19.87 2.98264 19.865 2.96514 19.86C2.94764 19.855 2.93014 19.85 2.91014 19.85C2.85014 19.85 2.79014 19.84 2.74014 19.82C2.68014 19.8 2.63014 19.77 2.58014 19.74C2.5649 19.7286 2.54822 19.7186 2.53119 19.7084C2.5035 19.6919 2.4749 19.6748 2.45014 19.65C2.41348 19.6207 2.38757 19.586 2.3606 19.5498C2.35078 19.5367 2.34081 19.5233 2.33014 19.51C2.32014 19.495 2.30764 19.4825 2.29514 19.47C2.28264 19.4575 2.27014 19.445 2.26014 19.43C2.24014 19.41 2.24014 19.4 2.24014 19.38C2.21789 19.3429 2.20664 19.3058 2.19415 19.2647C2.1898 19.2503 2.1853 19.2355 2.18014 19.22C2.17657 19.1986 2.17174 19.1785 2.16699 19.1588C2.15842 19.1231 2.15014 19.0886 2.15014 19.05C2.14014 19.03 2.14014 19 2.14014 19V5.99999C2.14014 5.97999 2.14514 5.96249 2.15014 5.94499C2.15514 5.92749 2.16014 5.90999 2.16014 5.88999C2.17014 5.82999 2.18014 5.76999 2.20014 5.70999L2.20014 5.70999C2.22014 5.65999 2.24014 5.60999 2.27014 5.55999C2.2786 5.54588 2.28627 5.53177 2.29382 5.51789C2.31302 5.48257 2.33142 5.44871 2.36014 5.41999C2.40284 5.37729 2.43825 5.34917 2.47883 5.31696C2.48576 5.31145 2.49284 5.30583 2.50014 5.29999C2.51514 5.28999 2.52764 5.27749 2.54014 5.26499C2.55264 5.25249 2.56514 5.23999 2.58014 5.22999C2.59514 5.21999 2.61014 5.21249 2.62514 5.20499C2.64014 5.19749 2.65514 5.18999 2.67014 5.17999C5.51014 3.58999 9.12014 3.50999 12.0101 4.98999C14.9101 3.50999 18.5101 3.58999 21.3501 5.17999C21.3651 5.18999 21.3801 5.19749 21.3951 5.20499C21.4101 5.21249 21.4251 5.21999 21.4401 5.22999C21.4551 5.23999 21.4676 5.25249 21.4801 5.26499C21.4926 5.27749 21.5051 5.28999 21.5201 5.29999C21.5358 5.31569 21.5531 5.32984 21.5706 5.34426C21.5978 5.36661 21.6258 5.38961 21.6501 5.41999C21.6651 5.44499 21.6801 5.46749 21.6951 5.48999C21.7101 5.51249 21.7251 5.53499 21.7401 5.55999C21.7701 5.60998 21.7901 5.65997 21.8101 5.70996L21.8101 5.70999ZM11.5001 7.12C11.5001 6.84 11.7201 6.62 12.0001 6.62C12.2801 6.62 12.5001 6.84 12.5001 7.12V17.4C12.5001 17.68 12.2801 17.9 12.0001 17.9C11.7201 17.9 11.5001 17.68 11.5001 17.4V7.12Z" fill="#3C68FF"/>
</g>
</g>
<defs>
<clipPath id="clip0_13182_108049">
<rect width="24" height="24" fill="white"/>
</clipPath>
<clipPath id="clip1_13182_108049">
<rect width="24" height="24" fill="white"/>
</clipPath>
</defs>
</svg>
