<svg width="100" height="100" viewBox="0 0 100 100" fill="none" xmlns="http://www.w3.org/2000/svg">
<path d="M91.5 10C92.9311 10 94 8.83928 94 7.5C94 6.16071 92.8428 5 91.5 5C90.1572 5 89 6.16071 89 7.5C89 8.83928 90.1572 10 91.5 10Z" fill="white"/>
<path d="M72.4397 7C73.2308 7 73.8794 7.63284 73.8794 8.42389C73.8794 9.21495 73.2308 9.84779 72.4397 9.84779C71.6487 9.84779 71 9.21495 71 8.42389C71 7.63284 71.6487 7 72.4397 7Z" fill="white"/>
<path d="M93.4397 24C94.2308 24 94.8794 24.6328 94.8794 25.4239C94.8794 26.2149 94.2308 26.8478 93.4397 26.8478C92.6487 26.8478 92 26.2149 92 25.4239C92 24.6328 92.6487 24 93.4397 24Z" fill="white"/>
<path d="M87.5 82C88.8736 82 90 83.1111 90 84.5C90 85.8889 88.8736 87 87.5 87C86.1264 87 85 85.8889 85 84.5C85 83.1111 86.1264 82 87.5 82Z" fill="white"/>
<path d="M10.4397 12C11.2308 12 11.8794 12.6328 11.8794 13.4239C11.8794 14.2149 11.2308 14.8478 10.4397 14.8478C9.64866 14.8478 9 14.2149 9 13.4239C9 12.6328 9.64866 12 10.4397 12Z" fill="white"/>
<path d="M85 61.3542V20.6667C85 18.0894 82.9106 16 80.3333 16H19.6667C17.0894 16 15 18.0894 15 20.6667V61.3542C15 61.9985 15.5224 62.5208 16.1667 62.5208H83.8333C84.4776 62.5208 85 61.9985 85 61.3542ZM55.742 34.4708C55.278 34.0068 55.2866 33.249 55.7679 32.7959C56.2329 32.358 56.9749 32.4039 57.4267 32.8556L58.4388 33.8676C58.6666 34.0954 59.036 34.0954 59.2638 33.8676L60.2759 32.8556C60.7275 32.4039 61.4695 32.358 61.9347 32.7959C62.416 33.249 62.4246 34.0068 61.9605 34.4708L60.9137 35.5176C60.6859 35.7454 60.6859 36.1148 60.9137 36.3426L61.9303 37.3592C62.6836 38.1124 62.1883 39.381 61.1355 39.381C60.8369 39.381 60.5383 39.2671 60.3106 39.0393L59.2639 37.9927C59.0361 37.7649 58.6667 37.7649 58.4389 37.9927L57.3923 39.0393C56.9163 39.5152 56.133 39.4938 55.6846 38.9775C55.2784 38.51 55.3346 37.7971 55.7725 37.3593L56.7891 36.3427C57.0169 36.1149 57.0169 35.7455 56.7891 35.5178L55.742 34.4708ZM59.6683 50.8963C60.4112 51.625 59.8917 52.8958 58.8512 52.8958C58.5563 52.8958 58.2613 52.7849 58.0341 52.562C54.9292 49.516 51.0996 49.2792 49.9999 49.2792C45.6496 49.2792 42.7506 51.7917 41.9656 52.5619C41.5059 53.0129 40.7673 53.0064 40.3158 52.5461C39.8646 52.0862 39.8716 51.3475 40.3315 50.8963C45.8092 45.5224 54.4265 45.7542 59.6683 50.8963ZM38.0395 34.4708C37.5754 34.0068 37.584 33.249 38.0653 32.7959C38.5304 32.358 39.2724 32.4039 39.7241 32.8556L40.7362 33.8676C40.964 34.0954 41.3334 34.0954 41.5612 33.8676L42.5733 32.8556C43.0249 32.4039 43.7669 32.358 44.2321 32.7959C44.7134 33.249 44.722 34.0068 44.258 34.4708L43.2112 35.5176C42.9834 35.7454 42.9834 36.1148 43.2112 36.3426L44.2278 37.3592C44.981 38.1124 44.4857 39.381 43.433 39.381C43.1343 39.381 42.8358 39.2671 42.608 39.0393L41.5614 37.9927C41.3336 37.7649 40.9642 37.7649 40.7364 37.9927L39.6897 39.0393C39.2137 39.5152 38.4305 39.4938 37.982 38.9775C37.5759 38.51 37.632 37.7971 38.07 37.3593L39.0866 36.3427C39.3144 36.1149 39.3144 35.7455 39.0866 35.5178L38.0395 34.4708Z" fill="white"/>
<path d="M15 66.0212V67.4795C15 70.0568 17.0894 72.1462 19.6667 72.1462H80.3333C82.884 72.1462 84.9621 70.0899 85 67.548V66.0212C85 65.3769 84.4776 64.8545 83.8333 64.8545H16.1667C15.5224 64.8545 15 65.3769 15 66.0212Z" fill="white"/>
<path d="M32.5526 83.284C32.3612 82.6688 32.7047 82.0148 33.32 81.8235C43.5526 78.6401 56.473 78.6481 66.68 81.8235C67.2953 82.015 67.6387 82.6689 67.4474 83.284C67.2559 83.8993 66.6027 84.2427 65.9867 84.0514C56.2751 81.03 43.7246 81.03 34.0133 84.0514C33.3992 84.2426 32.7444 83.9006 32.5526 83.284Z" fill="white"/>
<path d="M56.9173 77.467C52.4282 76.9775 47.6698 76.9664 43.0819 77.467C42.2605 77.5567 41.6097 76.7869 41.834 75.9915L42.0207 75.3296C42.1625 74.8267 42.6212 74.4795 43.1436 74.4795H56.856C57.3784 74.4795 57.8371 74.8267 57.979 75.3296L58.1656 75.9915C58.3901 76.7872 57.7392 77.5566 56.9173 77.467Z" fill="white"/>
</svg>
