<svg width="100" height="100" viewBox="0 0 100 100" fill="none" xmlns="http://www.w3.org/2000/svg">
<path d="M85 61.3542V20.6667C85 18.0894 82.9106 16 80.3333 16H19.6667C17.0894 16 15 18.0894 15 20.6667V61.3542C15 61.9985 15.5224 62.5208 16.1667 62.5208H83.8333C84.4776 62.5208 85 61.9985 85 61.3542ZM55.742 34.4708C55.278 34.0068 55.2866 33.249 55.7679 32.7959C56.2329 32.358 56.9749 32.4039 57.4267 32.8556L58.4388 33.8676C58.6666 34.0954 59.036 34.0954 59.2638 33.8676L60.2759 32.8556C60.7275 32.4039 61.4695 32.358 61.9347 32.7959C62.416 33.249 62.4246 34.0068 61.9605 34.4708L60.9137 35.5176C60.6859 35.7454 60.6859 36.1148 60.9137 36.3426L61.9303 37.3592C62.6836 38.1124 62.1883 39.381 61.1355 39.381C60.8369 39.381 60.5384 39.2671 60.3106 39.0393L59.2639 37.9927C59.0361 37.7649 58.6667 37.7649 58.4389 37.9927L57.3923 39.0393C56.9163 39.5152 56.133 39.4938 55.6846 38.9775C55.2784 38.51 55.3346 37.7971 55.7725 37.3593L56.7891 36.3427C57.0169 36.1149 57.0169 35.7455 56.7891 35.5178L55.742 34.4708ZM59.6683 50.8963C60.4112 51.625 59.8917 52.8958 58.8512 52.8958C58.5563 52.8958 58.2613 52.7849 58.0341 52.562C54.9292 49.516 51.0996 49.2792 49.9999 49.2792C45.6496 49.2792 42.7506 51.7917 41.9656 52.5619C41.5059 53.0129 40.7673 53.0064 40.3158 52.5461C39.8646 52.0862 39.8716 51.3475 40.3315 50.8963C45.8092 45.5224 54.4265 45.7542 59.6683 50.8963ZM38.0395 34.4708C37.5754 34.0068 37.584 33.249 38.0653 32.7959C38.5304 32.358 39.2724 32.4039 39.7241 32.8556L40.7362 33.8676C40.964 34.0954 41.3334 34.0954 41.5612 33.8676L42.5733 32.8556C43.0249 32.4039 43.7669 32.358 44.2321 32.7959C44.7134 33.249 44.722 34.0068 44.258 34.4708L43.2112 35.5176C42.9834 35.7454 42.9834 36.1148 43.2112 36.3426L44.2278 37.3592C44.981 38.1124 44.4857 39.381 43.433 39.381C43.1343 39.381 42.8358 39.2671 42.608 39.0393L41.5614 37.9927C41.3336 37.7649 40.9642 37.7649 40.7364 37.9927L39.6897 39.0393C39.2137 39.5152 38.4305 39.4938 37.982 38.9775C37.5759 38.51 37.632 37.7971 38.07 37.3593L39.0866 36.3427C39.3144 36.1149 39.3144 35.7455 39.0866 35.5178L38.0395 34.4708Z" fill="black"/>
<path d="M15 66.0209V67.4792C15 70.0566 17.0894 72.1459 19.6667 72.1459H80.3333C82.884 72.1459 84.9621 70.0897 85 67.5478V66.0209C85 65.3766 84.4776 64.8542 83.8333 64.8542H16.1667C15.5224 64.8542 15 65.3766 15 66.0209Z" fill="black"/>
<path d="M32.553 83.2838C32.3615 82.6686 32.7051 82.0147 33.3204 81.8233C43.5529 78.6399 56.4733 78.6479 66.6803 81.8233C67.2956 82.0148 67.6391 82.6687 67.4477 83.2838C67.2562 83.8991 66.6031 84.2426 65.9871 84.0512C56.2754 81.0298 43.725 81.0298 34.0137 84.0512C33.3996 84.2424 32.7448 83.9004 32.553 83.2838Z" fill="black"/>
<path d="M56.9173 77.4668C52.4282 76.9773 47.6698 76.9662 43.0819 77.4668C42.2605 77.5565 41.6097 76.7867 41.834 75.9913L42.0207 75.3294C42.1625 74.8265 42.6212 74.4793 43.1436 74.4793H56.856C57.3784 74.4793 57.8371 74.8265 57.979 75.3294L58.1656 75.9913C58.3901 76.787 57.7392 77.5564 56.9173 77.4668Z" fill="black"/>
</svg>
