<svg width="12" height="14" viewBox="0 0 12 14" fill="none" xmlns="http://www.w3.org/2000/svg">
<path d="M9.33333 0.333984C8.96667 0.333984 8.66667 0.633984 8.66667 1.00065V1.66732H3.33333V1.00065C3.33333 0.633984 3.03333 0.333984 2.66667 0.333984C2.3 0.333984 2 0.633984 2 1.00065V1.66732H1.33333C0.593333 1.66732 0.00666666 2.26732 0.00666666 3.00065L0 12.334C0 13.0673 0.593333 13.6673 1.33333 13.6673H10.6667C11.4 13.6673 12 13.0673 12 12.334V3.00065C12 2.26732 11.4 1.66732 10.6667 1.66732H10V1.00065C10 0.633984 9.7 0.333984 9.33333 0.333984ZM10.6667 12.334H1.33333V5.66732H10.6667V12.334ZM5.33333 7.66732C5.33333 7.30065 5.63333 7.00065 6 7.00065C6.36667 7.00065 6.66667 7.30065 6.66667 7.66732C6.66667 8.03398 6.36667 8.33398 6 8.33398C5.63333 8.33398 5.33333 8.03398 5.33333 7.66732ZM2.66667 7.66732C2.66667 7.30065 2.96667 7.00065 3.33333 7.00065C3.7 7.00065 4 7.30065 4 7.66732C4 8.03398 3.7 8.33398 3.33333 8.33398C2.96667 8.33398 2.66667 8.03398 2.66667 7.66732ZM8 7.66732C8 7.30065 8.3 7.00065 8.66667 7.00065C9.03333 7.00065 9.33333 7.30065 9.33333 7.66732C9.33333 8.03398 9.03333 8.33398 8.66667 8.33398C8.3 8.33398 8 8.03398 8 7.66732ZM5.33333 10.334C5.33333 9.96732 5.63333 9.66732 6 9.66732C6.36667 9.66732 6.66667 9.96732 6.66667 10.334C6.66667 10.7007 6.36667 11.0007 6 11.0007C5.63333 11.0007 5.33333 10.7007 5.33333 10.334ZM2.66667 10.334C2.66667 9.96732 2.96667 9.66732 3.33333 9.66732C3.7 9.66732 4 9.96732 4 10.334C4 10.7007 3.7 11.0007 3.33333 11.0007C2.96667 11.0007 2.66667 10.7007 2.66667 10.334ZM8 10.334C8 9.96732 8.3 9.66732 8.66667 9.66732C9.03333 9.66732 9.33333 9.96732 9.33333 10.334C9.33333 10.7007 9.03333 11.0007 8.66667 11.0007C8.3 11.0007 8 10.7007 8 10.334Z" fill="#19212F"/>
</svg>
