<svg width="24" height="24" viewBox="0 0 24 24" fill="none" xmlns="http://www.w3.org/2000/svg">
<g clip-path="url(#clip0_1657_17016)">
<path d="M19 17.0002C19.9282 17.0002 20.8185 16.6314 21.4749 15.9751C22.1312 15.3187 22.5 14.4285 22.5 13.5002C22.5 12.5719 22.1312 11.6817 21.4749 11.0253C20.8185 10.3689 19.9282 10.0002 19 10.0002H18C18.1459 9.35015 18.1481 8.68061 18.0065 8.02979C17.8649 7.37898 17.5823 6.75963 17.1748 6.20712C16.7672 5.65461 16.2427 5.17976 15.6313 4.80968C15.0198 4.43959 14.3334 4.18152 13.6111 4.0502C12.8888 3.91887 12.1449 3.91687 11.4218 4.04431C10.6986 4.17174 10.0105 4.42612 9.39658 4.79291C8.15675 5.53368 7.29467 6.68737 6.99999 8.0002C5.93394 7.95749 4.88553 8.2706 4.03426 8.88589C3.18299 9.50119 2.58181 10.3804 2.33366 11.373C2.08551 12.3656 2.20582 13.4099 2.67399 14.327C3.14216 15.2441 3.92907 15.977 4.89999 16.4002" stroke="white" stroke-width="1.75" stroke-linecap="round" stroke-linejoin="round"/>
<path d="M8 14H17" stroke="white" stroke-width="1.75" stroke-linecap="round" stroke-linejoin="round"/>
<path d="M9 14L9.5 20C9.5 20.2652 9.60536 20.5196 9.79289 20.7071C9.98043 20.8946 10.2348 21 10.5 21H14.5C14.7652 21 15.0196 20.8946 15.2071 20.7071C15.3946 20.5196 15.5 20.2652 15.5 20L16 14" stroke="white" stroke-width="1.75" stroke-linecap="round" stroke-linejoin="round"/>
<path d="M11.5 11.2998H13.8" stroke="white" stroke-width="1.75" stroke-linecap="round"/>
</g>
<defs>
<clipPath id="clip0_1657_17016">
<rect width="24" height="24" fill="white"/>
</clipPath>
</defs>
</svg>
