<svg width="24" height="24" viewBox="0 0 24 24" fill="none" xmlns="http://www.w3.org/2000/svg">
<g clip-path="url(#clip0_304_1706)">
<path d="M3 19C4.36817 18.21 5.92017 17.7942 7.5 17.7942C9.07983 17.7942 10.6318 18.21 12 19C13.3682 18.21 14.9202 17.7942 16.5 17.7942C18.0798 17.7942 19.6318 18.21 21 19" stroke="#907BFF" stroke-width="1.75" stroke-linecap="round" stroke-linejoin="round"/>
<path d="M3 5.99996C4.36817 5.21005 5.92017 4.79419 7.5 4.79419C9.07983 4.79419 10.6318 5.21005 12 5.99996C13.3682 5.21005 14.9202 4.79419 16.5 4.79419C18.0798 4.79419 19.6318 5.21005 21 5.99996" stroke="#907BFF" stroke-width="1.75" stroke-linecap="round" stroke-linejoin="round"/>
<path d="M3 6V19" stroke="#907BFF" stroke-width="1.75" stroke-linecap="round" stroke-linejoin="round"/>
<path d="M12 6V19" stroke="#907BFF" stroke-width="1.75" stroke-linecap="round" stroke-linejoin="round"/>
<path d="M21 6V19" stroke="#907BFF" stroke-width="1.75" stroke-linecap="round" stroke-linejoin="round"/>
</g>
<defs>
<clipPath id="clip0_304_1706">
<rect width="24" height="24" fill="white"/>
</clipPath>
</defs>
</svg>
