<svg width="24" height="24" viewBox="0 0 24 24" fill="none" xmlns="http://www.w3.org/2000/svg">
<path d="M10.8209 12.5249C10.6009 12.5149 10.3809 12.5049 10.1509 12.5049C7.73088 12.5049 5.47088 13.1749 3.54088 14.3249C2.66088 14.8449 2.15088 15.8249 2.15088 16.8549V18.5049C2.15088 19.0549 2.60088 19.5049 3.15088 19.5049H11.4109C10.6209 18.3749 10.1509 16.9949 10.1509 15.5049C10.1509 14.4349 10.4009 13.4349 10.8209 12.5249Z" fill="#3C68FF"/>
<path d="M10.1509 11.5049C12.36 11.5049 14.1509 9.71402 14.1509 7.50488C14.1509 5.29574 12.36 3.50488 10.1509 3.50488C7.94174 3.50488 6.15088 5.29574 6.15088 7.50488C6.15088 9.71402 7.94174 11.5049 10.1509 11.5049Z" fill="#3C68FF"/>
<path d="M20.9009 15.5049C20.9009 15.2849 20.8709 15.0849 20.8409 14.8749L21.6809 14.1449C21.8609 13.9849 21.9009 13.7249 21.7809 13.5149L21.1909 12.4949C21.0709 12.2849 20.8209 12.1949 20.6009 12.2749L19.5409 12.6349C19.2209 12.3649 18.8609 12.1549 18.4609 12.0049L18.2409 10.9149C18.1909 10.6849 17.9909 10.5149 17.7509 10.5149H16.5709C16.3309 10.5149 16.1309 10.6849 16.0809 10.9149L15.8609 12.0049C15.4609 12.1549 15.1009 12.3649 14.7809 12.6349L13.7209 12.2749C13.4909 12.1949 13.2509 12.2949 13.1309 12.4949L12.5409 13.5149C12.4209 13.7249 12.4609 13.9849 12.6409 14.1449L13.4809 14.8749C13.4509 15.0849 13.4209 15.2849 13.4209 15.5049C13.4209 15.7249 13.4509 15.9249 13.4809 16.1349L12.6409 16.8649C12.4609 17.0249 12.4209 17.2849 12.5409 17.4949L13.1309 18.5149C13.2509 18.7249 13.5009 18.8149 13.7209 18.7349L14.7809 18.3749C15.1009 18.6449 15.4609 18.8549 15.8609 19.0049L16.0809 20.0949C16.1309 20.3249 16.3309 20.4949 16.5709 20.4949H17.7509C17.9909 20.4949 18.1909 20.3249 18.2409 20.0949L18.4609 19.0049C18.8609 18.8549 19.2209 18.6449 19.5409 18.3749L20.6009 18.7349C20.8309 18.8149 21.0709 18.7149 21.1909 18.5149L21.7809 17.4949C21.9009 17.2849 21.8609 17.0249 21.6809 16.8649L20.8409 16.1349C20.8709 15.9249 20.9009 15.7249 20.9009 15.5049ZM17.1509 17.5049C16.0509 17.5049 15.1509 16.6049 15.1509 15.5049C15.1509 14.4049 16.0509 13.5049 17.1509 13.5049C18.2509 13.5049 19.1509 14.4049 19.1509 15.5049C19.1509 16.6049 18.2509 17.5049 17.1509 17.5049Z" fill="#3C68FF"/>
</svg>
