<svg width="100" height="100" viewBox="0 0 100 100" fill="none" xmlns="http://www.w3.org/2000/svg">
<path d="M91.5 10C92.9311 10 94 8.83928 94 7.5C94 6.16071 92.8428 5 91.5 5C90.1572 5 89 6.16071 89 7.5C89 8.83928 90.1572 10 91.5 10Z" fill="white"/>
<path d="M72.4397 7C73.2308 7 73.8794 7.63284 73.8794 8.42389C73.8794 9.21495 73.2308 9.84779 72.4397 9.84779C71.6487 9.84779 71 9.21495 71 8.42389C71 7.63284 71.6487 7 72.4397 7Z" fill="white"/>
<path d="M93.4397 24C94.2308 24 94.8794 24.6328 94.8794 25.4239C94.8794 26.2149 94.2308 26.8478 93.4397 26.8478C92.6487 26.8478 92 26.2149 92 25.4239C92 24.6328 92.6487 24 93.4397 24Z" fill="white"/>
<path d="M87.5 82C88.8736 82 90 83.1111 90 84.5C90 85.8889 88.8736 87 87.5 87C86.1264 87 85 85.8889 85 84.5C85 83.1111 86.1264 82 87.5 82Z" fill="white"/>
<path d="M10.4397 12C11.2308 12 11.8794 12.6328 11.8794 13.4239C11.8794 14.2149 11.2308 14.8478 10.4397 14.8478C9.64866 14.8478 9 14.2149 9 13.4239C9 12.6328 9.64866 12 10.4397 12Z" fill="white"/>
<path d="M41.0543 38.7879V33.9317C41.0543 29.315 44.8402 25.559 49.4936 25.559H73.5454V16.3491C73.5454 14.4994 72.0341 13 70.1697 13H29.8302C27.9658 13 26.4545 14.4994 26.4545 16.3491V38.7879H41.0543Z" fill="white"/>
<path d="M48.9752 69.5589C44.3218 69.5589 40.536 65.7959 40.536 61.1706V44.3939H9.6484C7.784 44.3939 6.27271 45.8961 6.27271 47.7493V74.4241C6.27271 76.2772 7.784 77.7794 9.6484 77.7794H18.594V85.3193C18.594 86.3132 19.4144 87 20.2887 87C20.6322 87 20.9838 86.8941 21.2976 86.6591L33.1535 77.7792H49.9879C51.8523 77.7792 53.3636 76.2771 53.3636 74.4239V69.5587H48.9752V69.5589Z" fill="white"/>
<path d="M90.3516 30.9394H50.012C48.1477 30.9394 46.6364 32.4416 46.6364 34.2947V60.9694C46.6364 62.8226 48.1477 64.3247 50.012 64.3247H66.8465L78.7024 73.2046C79.0162 73.4396 79.3677 73.5455 79.7112 73.5455C80.5855 73.5455 81.406 72.8586 81.406 71.8648V64.3249H90.3516C92.216 64.3249 93.7273 62.8227 93.7273 60.9696V34.2949C93.7273 32.4416 92.216 30.9394 90.3516 30.9394Z" fill="white"/>
</svg>
