<svg width="101" height="100" viewBox="0 0 101 100" fill="none" xmlns="http://www.w3.org/2000/svg">
<path opacity="0.3" d="M69.2498 20.833C62.8332 20.833 56.5832 24.958 54.4165 30.6663H46.6248C44.4165 24.958 38.1665 20.833 31.7498 20.833C23.4165 20.833 17.1665 27.083 17.1665 35.4163C17.1665 47.458 30.2498 59.333 50.0832 77.2913L50.4998 77.708L50.9165 77.2913C70.7498 59.333 83.8332 47.458 83.8332 35.4163C83.8332 27.083 77.5832 20.833 69.2498 20.833Z" fill="#97A5BB"/>
<path d="M69.2502 12.5C62.0002 12.5 55.0418 15.875 50.5002 21.2083C45.9585 15.875 39.0002 12.5 31.7502 12.5C18.9168 12.5 8.8335 22.5833 8.8335 35.4167C8.8335 51.1667 23.0002 64 44.4585 83.5L50.5002 88.9583L56.5418 83.4583C78.0002 64 92.1668 51.1667 92.1668 35.4167C92.1668 22.5833 82.0835 12.5 69.2502 12.5ZM50.9168 77.2917L50.5002 77.7083L50.0835 77.2917C30.2502 59.3333 17.1668 47.4583 17.1668 35.4167C17.1668 27.0833 23.4168 20.8333 31.7502 20.8333C38.1668 20.8333 44.4168 24.9583 46.6252 30.6667H54.4168C56.5835 24.9583 62.8335 20.8333 69.2502 20.8333C77.5835 20.8333 83.8335 27.0833 83.8335 35.4167C83.8335 47.4583 70.7502 59.3333 50.9168 77.2917Z" fill="#97A5BB"/>
</svg>
