<svg width="14" height="14" viewBox="0 0 14 14" fill="none" xmlns="http://www.w3.org/2000/svg">
<path d="M1.33333 13.8005C0.966667 13.8005 0.652778 13.67 0.391667 13.4089C0.130556 13.1477 0 12.8339 0 12.4672V3.13385C0 2.76719 0.130556 2.4533 0.391667 2.19219C0.652778 1.93108 0.966667 1.80052 1.33333 1.80052H7.28333L5.95 3.13385H1.33333V12.4672H10.6667V7.83385L12 6.50052V12.4672C12 12.8339 11.8694 13.1477 11.6083 13.4089C11.3472 13.67 11.0333 13.8005 10.6667 13.8005H1.33333ZM8.78333 2.18385L9.73333 3.11719L5.33333 7.51719V8.46719H6.26667L10.6833 4.05052L11.6333 4.98385L6.83333 9.80052H4V6.96719L8.78333 2.18385ZM11.6333 4.98385L8.78333 2.18385L10.45 0.517188C10.7167 0.250521 11.0361 0.117188 11.4083 0.117188C11.7806 0.117188 12.0944 0.250521 12.35 0.517188L13.2833 1.46719C13.5389 1.72274 13.6667 2.03385 13.6667 2.40052C13.6667 2.76719 13.5389 3.0783 13.2833 3.33385L11.6333 4.98385Z" fill="#19212F"/>
</svg>
