<svg width="104" height="104" viewBox="0 0 104 104" fill="none" xmlns="http://www.w3.org/2000/svg">
<circle cx="52" cy="52" r="51" fill="white" stroke="white" stroke-width="2"/>
<mask id="mask0_1651_14828" style="mask-type:alpha" maskUnits="userSpaceOnUse" x="0" y="0" width="104" height="104">
<circle cx="52" cy="52" r="51" fill="#E3E8EF" stroke="white" stroke-width="2"/>
</mask>
<g mask="url(#mask0_1651_14828)">
<path d="M82.1446 90.0538C78.6081 85.6124 50.6603 75.8721 50.6603 75.8721C50.6603 75.8721 23.2955 86.6529 19.1664 90.0538C15.0469 93.4644 13.5081 114.988 13.5081 114.988H87.0001C87.0001 114.988 85.6716 94.4953 82.1446 90.0538Z" fill="#273346"/>
<path d="M59.3295 81.0642C59.3295 81.0642 58.7465 83.8967 55.4298 85.39C54.235 85.9295 52.6771 92.7988 50.6699 92.7988C48.548 92.7988 46.9327 85.891 45.7188 85.2937C42.5742 83.7715 42.0198 81.0642 42.0198 81.0642C42.0198 81.0642 44.1321 76.8347 42.0198 71.873C39.9075 66.9113 61.9197 65.8997 59.3391 71.873C56.7584 77.8463 59.3391 81.0642 59.3391 81.0642H59.3295Z" fill="#4E5A70"/>
<path d="M70.4265 61.3046C72.0418 54.0114 73.9821 43.2787 73.9821 43.2787C80.6537 28.2492 73.7336 5.58915 60.8015 12.5548C44.8013 -2.17614 19.4915 18.4221 28.0555 43.0764C28.0555 43.0764 29.0878 54.3582 30.7509 61.5455C32.6243 69.6287 46.4357 75.6309 50.6604 75.8718C54.8755 76.1126 68.7156 69.0314 70.4265 61.3142V61.3046Z" fill="#19212F"/>
<path d="M75.1386 47.5746C75.1386 51.515 72.3668 56.9295 70.5029 56.9295C68.6391 56.9295 67.1194 53.7309 67.1194 49.8001C67.1194 45.8693 69.031 43.8268 70.5029 42.6707C72.3094 41.2448 75.1386 42.6707 75.1386 47.5842V47.5746Z" fill="#8697AF"/>
<path d="M26.7461 47.5746C26.7461 51.515 29.5179 56.9295 31.3818 56.9295C33.2456 56.9295 34.7653 53.7309 34.7653 49.8001C34.7653 45.8693 32.8537 43.8268 31.3818 42.6707C29.5753 41.2448 26.7461 42.6707 26.7461 47.5842V47.5746Z" fill="#8697AF"/>
<path d="M51.0236 16.3604C37.9004 16.3604 32.0986 25.6286 32.0986 39.4539V56.7668C32.0986 68.8098 44 79.1089 50.259 79.1089C56 79.1089 69.9486 67.066 69.9486 55.6589V39.4539C69.9486 25.6286 64.1469 16.3604 51.0236 16.3604Z" fill="#79889F"/>
<path d="M69.9488 49.319L71.134 39.2318C71.134 25.4065 64.147 15.1074 51.0238 15.1074C37.9005 15.1074 31.4202 25.4065 31.4202 39.2318L32.0988 51.5349C32.0988 51.5349 33.6568 48.8951 33.5134 44.9932C33.198 36.1199 39.3629 35.3299 46.5411 33.9426C57.8578 31.7652 61.0407 24.9248 61.0407 24.9248C61.0407 24.9248 64.7492 26.1869 67.1196 31.7652C68.6489 35.3685 69.0121 40.8889 68.8878 43.153C68.7731 45.4075 69.9488 49.319 69.9488 49.319Z" fill="#19212F"/>
<path d="M39.879 39.2324C34.8037 39.2324 31.6208 41.1304 31.6208 43.1536C31.6208 46.3618 32.7869 51.574 37.824 52.1906C42.6987 52.788 49.0739 51.0056 49.0739 42.8068C49.0739 40.9088 44.9544 39.2421 39.879 39.2421V39.2324ZM38.1968 51.2657C33.8766 50.7358 32.8825 46.2848 32.8825 43.539C32.8825 41.8144 35.597 40.1766 39.9459 40.1766C44.2949 40.1766 47.8218 41.6025 47.8218 43.2307C47.8218 50.2541 42.3737 51.7763 38.1968 51.2657Z" fill="white"/>
<path d="M52.2566 44.8781C52.2566 44.8781 52.0177 43.6257 50.345 43.6257C49.1981 43.6257 48.9018 44.9937 48.9018 44.9937L48.29 41.3809C48.29 41.3809 49.1311 42.1034 49.6855 42.1034C49.9627 42.1034 50.6509 42.248 51.2244 42.1034C51.7979 41.9589 52.2566 41.3809 52.2566 41.3809V44.8685V44.8781Z" fill="white"/>
<path d="M32.328 46.8431C32.328 46.8431 30.5024 46.7082 30.5024 45.764V42.9219C30.5024 41.4382 32.328 41.9103 32.328 41.9103V46.8431Z" fill="white"/>
<path d="M51.4346 42.8068C51.4346 51.0056 57.8003 52.788 62.6844 52.1906C67.7311 51.574 68.8876 46.3715 68.8876 43.1536C68.8876 41.1304 65.7143 39.2324 60.6294 39.2324C55.5445 39.2324 51.4346 40.8992 51.4346 42.7971V42.8068ZM52.6867 43.2307C52.6867 41.6025 56.2136 40.1766 60.5625 40.1766C64.9115 40.1766 67.626 41.8048 67.626 43.539C67.626 46.2848 66.6319 50.7455 62.3212 51.2657C58.1443 51.7763 52.6962 50.2541 52.6962 43.2307H52.6867Z" fill="white"/>
<path d="M68.1804 46.8431C68.1804 46.8431 70.006 46.7082 70.006 45.764V42.9219C70.006 41.4382 68.1804 41.9103 68.1804 41.9103V46.8431Z" fill="white"/>
</g>
</svg>
