<svg width="16" height="16" viewBox="0 0 16 16" fill="none" xmlns="http://www.w3.org/2000/svg">
<g clip-path="url(#clip0_802_11977)">
<path d="M3.66662 3.33325H12.3333C12.4293 3.36692 12.5163 3.42213 12.5877 3.49463C12.6591 3.56713 12.7129 3.65501 12.7451 3.75153C12.7773 3.84806 12.7869 3.95066 12.7733 4.0515C12.7597 4.15233 12.7232 4.24871 12.6666 4.33325L9.33328 7.99992V12.6666L6.66662 10.6666V7.99992L3.33328 4.33325C3.27668 4.24871 3.24017 4.15233 3.22657 4.0515C3.21296 3.95066 3.22262 3.84806 3.25479 3.75153C3.28697 3.65501 3.34081 3.56713 3.41219 3.49463C3.48357 3.42213 3.5706 3.36692 3.66662 3.33325Z" stroke="#3C68FF" stroke-width="1.16667" stroke-linecap="round" stroke-linejoin="round"/>
</g>
<defs>
<clipPath id="clip0_802_11977">
<rect width="16" height="16" fill="white"/>
</clipPath>
</defs>
</svg>
