<svg width="177" height="177" viewBox="0 0 177 177" fill="none" xmlns="http://www.w3.org/2000/svg">
<path d="M32.9662 151.215H144.034C155.391 151.215 162.471 138.899 156.792 129.09L101.259 33.1414C95.5799 23.3327 81.4199 23.3327 75.7412 33.1414L20.2074 129.09C14.5287 138.899 21.6087 151.215 32.9662 151.215ZM88.4999 99.5902C84.4437 99.5902 81.1249 96.2714 81.1249 92.2152V77.4652C81.1249 73.4089 84.4437 70.0902 88.4999 70.0902C92.5562 70.0902 95.8749 73.4089 95.8749 77.4652V92.2152C95.8749 96.2714 92.5562 99.5902 88.4999 99.5902ZM95.8749 129.09H81.1249V114.34H95.8749V129.09Z" fill="#97A5BB"/>
</svg>
