<svg width="73" height="76" viewBox="0 0 73 76" fill="none" xmlns="http://www.w3.org/2000/svg">
<g clip-path="url(#clip0_1092_11027)">
<path d="M18.3961 8.71306C13.2886 7.04969 11.6257 5.38633 9.96281 0.277417C9.84403 -0.0988201 9.32932 -0.0988201 9.21054 0.277417C7.54763 5.38633 5.88472 7.04969 0.777218 8.71306C0.401084 8.83187 0.401084 9.34672 0.777218 9.46554C5.88472 11.1289 7.54763 12.7923 9.21054 17.9012C9.32932 18.2576 9.84403 18.2576 9.96281 17.9012C11.6257 12.7923 13.2886 11.1289 18.3961 9.46554C18.7525 9.34672 18.7525 8.83187 18.3961 8.71306Z" fill="#19212F"/>
<path d="M71.3321 33.0495L58.8405 18.4554C57.9101 17.3663 56.5441 16.7327 55.0989 16.7327H19.8809C18.4358 16.7327 17.0896 17.3663 16.1394 18.4554L3.64775 33.0495C2.06403 34.8911 2.06403 37.6238 3.64775 39.4653L33.7583 74.3168C35.7181 76.594 39.2419 76.594 41.2018 74.3168L71.3123 39.4653C72.896 37.6238 72.9158 34.9109 71.3123 33.0495H71.3321ZM26.7305 46.8317C26.5721 47.3465 25.8397 47.3465 25.6813 46.8317C23.3453 39.6634 21.0291 37.3465 13.8628 35.0099C13.3481 34.8515 13.3481 34.1188 13.8628 33.9604C21.0291 31.6238 23.3453 29.3069 25.6813 22.1386C25.8397 21.6238 26.5721 21.6238 26.7305 22.1386C29.0665 29.3069 31.3827 31.6238 38.549 33.9604C39.0638 34.1188 39.0638 34.8515 38.549 35.0099C31.3827 37.3465 29.0665 39.6634 26.7305 46.8317ZM49.6549 48.5941C46.1707 49.7228 45.0621 50.8515 43.9139 54.3366C43.8347 54.5941 43.4784 54.5941 43.3992 54.3366C42.2708 50.8515 41.1424 49.7426 37.6582 48.5941C37.4008 48.5148 37.4008 48.1584 37.6582 48.0792C41.1424 46.9505 42.251 45.8218 43.3992 42.3366C43.4784 42.0792 43.8347 42.0792 43.9139 42.3366C45.0423 45.8218 46.1707 46.9307 49.6549 48.0792C49.9123 48.1584 49.9123 48.5148 49.6549 48.5941Z" fill="#19212F"/>
</g>
<defs>
<clipPath id="clip0_1092_11027">
<rect width="72" height="76" fill="white" transform="translate(0.5)"/>
</clipPath>
</defs>
</svg>
