<svg width="48" height="48" viewBox="0 0 48 48" fill="none" xmlns="http://www.w3.org/2000/svg">
<mask id="path-1-inside-1_2505_15436" fill="white">
<path fill-rule="evenodd" clip-rule="evenodd" d="M24 48C37.2548 48 48 37.2548 48 24C48 10.7452 37.2548 0 24 0C10.7452 0 0 10.7452 0 24C0 37.2548 10.7452 48 24 48ZM32.1 25.466C32.7667 25.0811 32.7667 24.1189 32.1 23.734L21.6 17.6718C20.9333 17.2869 20.1 17.768 20.1 18.5378V30.6622C20.1 31.432 20.9333 31.9131 21.6 31.5282L32.1 25.466Z"/>
</mask>
<path fill-rule="evenodd" clip-rule="evenodd" d="M24 48C37.2548 48 48 37.2548 48 24C48 10.7452 37.2548 0 24 0C10.7452 0 0 10.7452 0 24C0 37.2548 10.7452 48 24 48ZM32.1 25.466C32.7667 25.0811 32.7667 24.1189 32.1 23.734L21.6 17.6718C20.9333 17.2869 20.1 17.768 20.1 18.5378V30.6622C20.1 31.432 20.9333 31.9131 21.6 31.5282L32.1 25.466Z" fill="white" fill-opacity="0.9"/>
<path d="M32.1 23.734L31.85 24.167L31.85 24.167L32.1 23.734ZM32.1 25.466L31.85 25.033L31.85 25.033L32.1 25.466ZM21.6 17.6718L21.35 18.1048L21.35 18.1048L21.6 17.6718ZM21.6 31.5282L21.35 31.0952L21.35 31.0952L21.6 31.5282ZM47.5 24C47.5 36.9787 36.9787 47.5 24 47.5V48.5C37.531 48.5 48.5 37.531 48.5 24H47.5ZM24 0.5C36.9787 0.5 47.5 11.0213 47.5 24H48.5C48.5 10.469 37.531 -0.5 24 -0.5V0.5ZM0.5 24C0.5 11.0213 11.0213 0.5 24 0.5V-0.5C10.469 -0.5 -0.5 10.469 -0.5 24H0.5ZM24 47.5C11.0213 47.5 0.5 36.9787 0.5 24H-0.5C-0.5 37.531 10.469 48.5 24 48.5V47.5ZM31.85 24.167C32.1833 24.3594 32.1833 24.8406 31.85 25.033L32.35 25.899C33.35 25.3217 33.35 23.8783 32.35 23.301L31.85 24.167ZM21.35 18.1048L31.85 24.167L32.35 23.301L21.85 17.2388L21.35 18.1048ZM20.6 18.5378C20.6 18.1529 21.0167 17.9124 21.35 18.1048L21.85 17.2388C20.85 16.6614 19.6 17.3831 19.6 18.5378H20.6ZM20.6 30.6622V18.5378H19.6V30.6622H20.6ZM21.35 31.0952C21.0167 31.2876 20.6 31.0471 20.6 30.6622H19.6C19.6 31.8169 20.85 32.5386 21.85 31.9612L21.35 31.0952ZM31.85 25.033L21.35 31.0952L21.85 31.9612L32.35 25.899L31.85 25.033Z" fill="#313D51" mask="url(#path-1-inside-1_2505_15436)"/>
</svg>
