<svg width="300" height="300" viewBox="0 0 300 300" fill="none" xmlns="http://www.w3.org/2000/svg">
<rect width="300" height="300" rx="8" fill="#F9FAFB"/>
<g clip-path="url(#clip0_101_25)">
<path d="M125.415 180.974C118.172 180.974 111.73 176.337 109.391 169.434L109.233 168.913C108.681 167.085 108.45 165.548 108.45 164.01V133.165L97.475 169.8C96.0635 175.188 99.28 180.775 104.677 182.263L174.63 200.997C175.504 201.223 176.377 201.332 177.236 201.332C181.742 201.332 185.859 198.342 187.013 193.935L191.088 180.974H125.415Z" fill="#CCD4E0"/>
<path d="M137.856 133.473C142.846 133.473 146.903 129.415 146.903 124.425C146.903 119.435 142.846 115.377 137.856 115.377C132.866 115.377 128.808 119.435 128.808 124.425C128.808 129.415 132.866 133.473 137.856 133.473Z" fill="#CCD4E0"/>
<path d="M194.404 101.805H126.545C120.312 101.805 115.236 106.881 115.236 113.116V162.878C115.236 169.112 120.312 174.188 126.545 174.188H194.404C200.638 174.188 205.714 169.112 205.714 162.878V113.116C205.714 106.881 200.638 101.805 194.404 101.805ZM126.545 110.853H194.404C195.653 110.853 196.666 111.866 196.666 113.116V145.231L182.376 128.555C180.86 126.778 178.665 125.827 176.309 125.774C173.965 125.787 171.767 126.827 170.265 128.628L153.463 148.795L147.989 143.335C144.895 140.241 139.859 140.241 136.77 143.335L124.284 155.816V113.116C124.284 111.866 125.297 110.853 126.545 110.853Z" fill="#CCD4E0"/>
</g>
<defs>
<clipPath id="clip0_101_25">
<rect width="108.571" height="108.571" fill="white" transform="translate(97.1429 97.1429)"/>
</clipPath>
</defs>
</svg>
