<svg width="25" height="24" viewBox="0 0 25 24" fill="none" xmlns="http://www.w3.org/2000/svg">
<g clip-path="url(#clip0_2478_9245)">
<path d="M3.5 7C3.5 6.46957 3.71071 5.96086 4.08579 5.58579C4.46086 5.21071 4.96957 5 5.5 5H19.5C20.0304 5 20.5391 5.21071 20.9142 5.58579C21.2893 5.96086 21.5 6.46957 21.5 7V17C21.5 17.5304 21.2893 18.0391 20.9142 18.4142C20.5391 18.7893 20.0304 19 19.5 19H5.5C4.96957 19 4.46086 18.7893 4.08579 18.4142C3.71071 18.0391 3.5 17.5304 3.5 17V7Z" stroke="#879FF5" stroke-width="1.75" stroke-linecap="round" stroke-linejoin="round"/>
<path d="M10.5 10.5C10.5 10.1022 10.342 9.72064 10.0607 9.43934C9.77936 9.15804 9.39782 9 9 9C8.60218 9 8.22064 9.15804 7.93934 9.43934C7.65804 9.72064 7.5 10.1022 7.5 10.5V13.5C7.5 13.8978 7.65804 14.2794 7.93934 14.5607C8.22064 14.842 8.60218 15 9 15C9.39782 15 9.77936 14.842 10.0607 14.5607C10.342 14.2794 10.5 13.8978 10.5 13.5" stroke="#879FF5" stroke-width="1.75" stroke-linecap="round" stroke-linejoin="round"/>
<path d="M17.5 10.5C17.5 10.1022 17.342 9.72064 17.0607 9.43934C16.7794 9.15804 16.3978 9 16 9C15.6022 9 15.2206 9.15804 14.9393 9.43934C14.658 9.72064 14.5 10.1022 14.5 10.5V13.5C14.5 13.8978 14.658 14.2794 14.9393 14.5607C15.2206 14.842 15.6022 15 16 15C16.3978 15 16.7794 14.842 17.0607 14.5607C17.342 14.2794 17.5 13.8978 17.5 13.5" stroke="#879FF5" stroke-width="1.75" stroke-linecap="round" stroke-linejoin="round"/>
</g>
<defs>
<clipPath id="clip0_2478_9245">
<rect width="24" height="24" fill="white" transform="translate(0.5)"/>
</clipPath>
</defs>
</svg>
