<svg width="18" height="18" viewBox="0 0 18 18" fill="none" xmlns="http://www.w3.org/2000/svg">
<path d="M9 1.5C4.875 1.5 1.5 4.875 1.5 9C1.5 13.125 4.875 16.5 9 16.5C13.125 16.5 16.5 13.125 16.5 9C16.5 4.875 13.125 1.5 9 1.5ZM11.6625 11.85L8.6025 9.9675C8.3775 9.8325 8.2425 9.5925 8.2425 9.33V5.8125C8.25 5.505 8.505 5.25 8.8125 5.25C9.12 5.25 9.375 5.505 9.375 5.8125V9.15L12.255 10.8825C12.525 11.0475 12.615 11.4 12.45 11.67C12.285 11.9325 11.9325 12.015 11.6625 11.85Z" fill="#FFC94D" stroke="#FFF4DB"/>
<path d="M9 1.5C4.875 1.5 1.5 4.875 1.5 9C1.5 13.125 4.875 16.5 9 16.5C13.125 16.5 16.5 13.125 16.5 9C16.5 4.875 13.125 1.5 9 1.5ZM11.6625 11.85L8.6025 9.9675C8.3775 9.8325 8.2425 9.5925 8.2425 9.33V5.8125C8.25 5.505 8.505 5.25 8.8125 5.25C9.12 5.25 9.375 5.505 9.375 5.8125V9.15L12.255 10.8825C12.525 11.0475 12.615 11.4 12.45 11.67C12.285 11.9325 11.9325 12.015 11.6625 11.85Z" fill="#FFC94D" stroke="#19212F"/>
<circle cx="9" cy="9" r="7.5" stroke="#FFF4DB"/>
</svg>
