<svg width="20" height="20" viewBox="0 0 20 20" fill="none" xmlns="http://www.w3.org/2000/svg">
<g clip-path="url(#clip0_895_10898)">
<path d="M12.5 6.6665H12.5083" stroke="white" stroke-width="1.45833" stroke-linecap="round" stroke-linejoin="round"/>
<path d="M9.16671 16.6668H5.83337C5.17033 16.6668 4.53445 16.4034 4.06561 15.9346C3.59677 15.4658 3.33337 14.8299 3.33337 14.1668V5.8335C3.33337 5.17045 3.59677 4.53457 4.06561 4.06573C4.53445 3.59689 5.17033 3.3335 5.83337 3.3335H14.1667C14.8297 3.3335 15.4656 3.59689 15.9345 4.06573C16.4033 4.53457 16.6667 5.17045 16.6667 5.8335V9.16683" stroke="white" stroke-width="1.45833" stroke-linecap="round" stroke-linejoin="round"/>
<path d="M3.33337 12.4999L6.66671 9.16652C7.44004 8.42236 8.39337 8.42236 9.16671 9.16652L11.6667 11.6665" stroke="white" stroke-width="1.45833" stroke-linecap="round" stroke-linejoin="round"/>
<path d="M11.6666 11.6664L12.5 10.8331C12.7583 10.5848 13.0366 10.4189 13.3225 10.3364" stroke="white" stroke-width="1.45833" stroke-linecap="round" stroke-linejoin="round"/>
<path d="M15.35 13.0082C15.5125 12.8457 15.7054 12.7168 15.9178 12.6288C16.1301 12.5409 16.3577 12.4956 16.5875 12.4956C16.8173 12.4956 17.0449 12.5409 17.2572 12.6288C17.4696 12.7168 17.6625 12.8457 17.825 13.0082C17.9875 13.1707 18.1164 13.3636 18.2044 13.576C18.2923 13.7883 18.3376 14.0159 18.3376 14.2457C18.3376 14.4755 18.2923 14.7031 18.2044 14.9154C18.1164 15.1278 17.9875 15.3207 17.825 15.4832L15 18.3332H12.5V15.8332L15.35 13.0082Z" stroke="white" stroke-width="1.45833" stroke-linecap="round" stroke-linejoin="round"/>
</g>
<defs>
<clipPath id="clip0_895_10898">
<rect width="20" height="20" fill="white"/>
</clipPath>
</defs>
</svg>
