<svg width="162" height="162" viewBox="0 0 162 162" fill="none" xmlns="http://www.w3.org/2000/svg">
<path d="M135 20.25H128.25V13.5C128.25 9.7875 125.213 6.75 121.5 6.75C117.787 6.75 114.75 9.7875 114.75 13.5V20.25H47.25V13.5C47.25 9.7875 44.2125 6.75 40.5 6.75C36.7875 6.75 33.75 9.7875 33.75 13.5V20.25H27C19.575 20.25 13.5 26.325 13.5 33.75V141.75C13.5 149.175 19.575 155.25 27 155.25H135C142.425 155.25 148.5 149.175 148.5 141.75V33.75C148.5 26.325 142.425 20.25 135 20.25ZM128.25 141.75H33.75C30.0375 141.75 27 138.712 27 135V54H135V135C135 138.712 131.963 141.75 128.25 141.75Z" fill="#19212F"/>
<path d="M81.0002 81.3485V86.6607C81.0002 87.9961 82.6027 88.649 83.5227 87.6994L91.8025 79.4195C92.396 78.826 92.396 77.906 91.8025 77.3125L83.5227 69.0327C82.6027 68.1127 81.0002 68.7656 81.0002 70.1011V75.4132C67.8831 75.4132 57.2588 86.0375 57.2588 99.1546C57.2588 102.241 57.8523 105.209 58.9504 107.909C59.7516 109.898 62.3038 110.432 63.8173 108.918C64.6186 108.117 64.9451 106.9 64.4999 105.832C63.6393 103.784 63.1941 101.499 63.1941 99.1546C63.1941 89.3316 71.1772 81.3485 81.0002 81.3485ZM98.183 89.3909C97.3817 90.1922 97.0553 91.4386 97.5004 92.4773C98.3314 94.5547 98.8062 96.8101 98.8062 99.1546C98.8062 108.978 90.8232 116.961 81.0002 116.961V111.648C81.0002 110.313 79.3976 109.66 78.4776 110.61L70.1978 118.89C69.6043 119.483 69.6043 120.403 70.1978 120.997L78.4776 129.276C79.3976 130.196 81.0002 129.544 81.0002 128.238V122.896C94.1173 122.896 104.742 112.272 104.742 99.1546C104.742 96.0682 104.148 93.1005 103.05 90.3999C102.249 88.4116 99.6965 87.8774 98.183 89.3909Z" fill="#19212F"/>
</svg>
