<svg width="100" height="100" viewBox="0 0 100 100" fill="none" xmlns="http://www.w3.org/2000/svg">
<path d="M49.9997 85C43.9283 85 39.2854 80.3572 39.2854 74.2857C39.2854 71.4286 40.3569 68.5715 42.4997 66.7857C46.7854 62.8572 53.5712 62.8572 57.4997 66.7857C61.7854 71.0715 61.7854 77.8572 57.4997 81.7857C55.714 83.9286 52.8569 85 49.9997 85ZM72.1426 57.1429L91.7854 37.5C93.214 36.0715 93.214 33.9286 91.7854 32.5C76.4283 17.1429 53.5711 11.4286 32.8569 17.5L72.1426 57.1429ZM91.7854 86.7857L13.214 8.21431C11.7854 6.78574 9.64258 6.78574 8.21401 8.21431C6.78544 9.64288 6.78544 11.7857 8.21401 13.2143L18.9283 23.9286C14.9997 26.4286 11.4283 29.2857 8.21401 32.5C6.78544 33.9286 6.78544 36.0715 8.21401 37.5L31.0711 60.3572C32.4997 61.7857 34.6426 61.7857 36.0711 60.3572C39.6426 56.7857 44.6426 54.6429 49.6426 54.6429L86.7854 91.7857C88.214 93.2143 90.3569 93.2143 91.7854 91.7857C93.214 90.3572 93.214 88.2143 91.7854 86.7857Z" fill="white"/>
</svg>
