<svg width="171" height="48" viewBox="0 0 171 48" fill="none" xmlns="http://www.w3.org/2000/svg">
<path d="M20.6077 0C9.24426 0 0 9.3704 0 20.8889V39.3145C0 40.3096 0.592957 41.2112 1.50184 41.5906C1.80317 41.7187 2.11909 41.7778 2.43016 41.7778C3.06199 41.7778 3.68411 41.5265 4.1507 41.0585L15.2371 29.8209C16.8798 30.9047 18.8385 31.5353 20.943 31.5353C26.7317 31.5353 31.4462 26.7614 31.4462 20.8889C31.4462 15.0164 26.7365 10.2425 20.943 10.2425C15.1495 10.2425 10.4399 15.0164 10.4399 20.8889C10.4399 22.8448 10.9649 24.6774 11.8786 26.2589L4.8603 33.368V20.8889C4.8603 12.085 11.9272 4.92662 20.6077 4.92662C29.2882 4.92662 36.355 12.09 36.355 20.8889C36.355 29.6878 29.2882 36.8511 20.6077 36.8511C19.169 36.8511 17.7401 36.654 16.3646 36.2649C15.0718 35.9004 13.7303 36.6639 13.3707 37.9744C13.011 39.2849 13.7644 40.6446 15.0572 41.0092C16.8555 41.5166 18.7219 41.7778 20.6077 41.7778C31.9711 41.7778 41.2154 32.4074 41.2154 20.8889C41.2154 9.3704 31.9711 0 20.6077 0ZM20.9382 15.1691C24.0488 15.1691 26.581 17.7358 26.581 20.8889C26.581 24.042 24.0488 26.6087 20.9382 26.6087C17.8276 26.6087 15.2954 24.042 15.2954 20.8889C15.2954 17.7358 17.8276 15.1691 20.9382 15.1691Z" fill="white"/>
<path d="M54.3693 33.7777V4.65771H62.5378C65.4053 4.65771 67.8388 5.09771 69.8382 5.97772C71.8376 6.83105 73.4555 7.99105 74.692 9.45772C75.9284 10.8977 76.8229 12.511 77.3753 14.2977C77.9541 16.0577 78.2435 17.831 78.2435 19.6177C78.2435 21.8044 77.862 23.7644 77.0991 25.4977C76.3362 27.231 75.297 28.7244 73.9816 29.9777C72.6663 31.2044 71.1404 32.151 69.4041 32.8177C67.6941 33.4577 65.8657 33.7777 63.919 33.7777H54.3693ZM58.9863 29.2977H63.0903C64.6161 29.2977 66.0104 29.0844 67.2732 28.6577C68.536 28.2044 69.6277 27.5644 70.5485 26.7377C71.4956 25.8844 72.219 24.831 72.7189 23.5777C73.245 22.3244 73.5081 20.8977 73.5081 19.2977C73.5081 17.4844 73.2056 15.9377 72.6005 14.6577C72.0217 13.351 71.2456 12.2977 70.2723 11.4977C69.3252 10.671 68.286 10.071 67.1548 9.69771C66.0236 9.32438 64.9055 9.13771 63.8006 9.13771H58.9863V29.2977ZM90.5757 34.2177C88.6026 34.2177 86.9192 33.831 85.5249 33.0577C84.1306 32.2844 83.0652 31.2177 82.3286 29.8577C81.5919 28.471 81.2236 26.911 81.2236 25.1777C81.2236 23.471 81.6446 21.9377 82.4864 20.5777C83.3282 19.2177 84.4595 18.1377 85.8801 17.3377C87.327 16.511 88.9183 16.0977 90.6546 16.0977C92.9434 16.0977 94.8244 16.7777 96.2976 18.1377C97.7971 19.471 98.7968 21.3644 99.2967 23.8177L85.8406 28.4177L84.8146 25.8977L95.3111 22.0977L94.4034 22.6177C94.114 21.8177 93.6405 21.1244 92.9828 20.5377C92.3514 19.951 91.457 19.6577 90.2994 19.6577C89.3787 19.6577 88.5631 19.8844 87.8532 20.3377C87.1429 20.7644 86.5772 21.3777 86.1563 22.1777C85.7617 22.951 85.5644 23.871 85.5644 24.9377C85.5644 26.031 85.788 26.991 86.2352 27.8177C86.6825 28.6444 87.2876 29.2844 88.0505 29.7377C88.813 30.1644 89.6812 30.3777 90.6546 30.3777C91.3386 30.3777 91.9963 30.2577 92.6277 30.0177C93.259 29.7777 93.851 29.4577 94.4034 29.0577L96.416 32.3777C95.5478 32.9377 94.5876 33.3911 93.5353 33.7377C92.5093 34.0577 91.5227 34.2177 90.5757 34.2177ZM107.781 34.1377C106.518 34.1377 105.308 33.911 104.15 33.4577C103.019 33.0044 102.059 32.3377 101.27 31.4577L103.164 28.9377C103.901 29.6577 104.624 30.191 105.334 30.5377C106.071 30.8577 106.768 31.0177 107.426 31.0177C107.926 31.0177 108.373 30.9644 108.767 30.8577C109.188 30.7244 109.517 30.5244 109.754 30.2577C110.017 29.991 110.149 29.6311 110.149 29.1777C110.149 28.6444 109.964 28.231 109.596 27.9377C109.228 27.6177 108.754 27.3644 108.176 27.1777C107.597 26.9644 106.992 26.7644 106.36 26.5777C104.913 26.1244 103.835 25.4577 103.124 24.5777C102.414 23.6977 102.059 22.6844 102.059 21.5377C102.059 20.6577 102.283 19.8177 102.73 19.0177C103.177 18.191 103.861 17.511 104.782 16.9777C105.703 16.4444 106.86 16.1777 108.254 16.1777C109.517 16.1777 110.609 16.3244 111.53 16.6177C112.477 16.8844 113.358 17.351 114.174 18.0177L112.477 20.6977C112.003 20.2444 111.438 19.8977 110.78 19.6577C110.149 19.391 109.57 19.2444 109.044 19.2177C108.57 19.191 108.149 19.2577 107.781 19.4177C107.413 19.551 107.11 19.751 106.873 20.0177C106.663 20.2844 106.558 20.591 106.558 20.9377C106.531 21.471 106.702 21.8977 107.071 22.2177C107.465 22.5377 107.965 22.791 108.57 22.9777C109.175 23.1644 109.78 23.3644 110.385 23.5777C111.201 23.8177 111.924 24.151 112.556 24.5777C113.187 25.0044 113.674 25.5244 114.016 26.1377C114.384 26.7244 114.568 27.4577 114.568 28.3377C114.568 29.351 114.318 30.311 113.819 31.2177C113.319 32.0977 112.569 32.8044 111.569 33.3377C110.57 33.871 109.307 34.1377 107.781 34.1377ZM118.578 16.8577H122.998V33.7777H118.578V16.8577ZM118.381 10.8177C118.381 10.1244 118.644 9.55105 119.17 9.09771C119.723 8.64438 120.315 8.41772 120.946 8.41772C121.578 8.41772 122.143 8.64438 122.643 9.09771C123.169 9.55105 123.432 10.1244 123.432 10.8177C123.432 11.511 123.169 12.0844 122.643 12.5377C122.143 12.9644 121.578 13.1777 120.946 13.1777C120.315 13.1777 119.723 12.951 119.17 12.4977C118.644 12.0444 118.381 11.4844 118.381 10.8177ZM136.51 42.2177C135.142 42.2177 133.971 42.0577 132.998 41.7377C132.024 41.4177 131.156 40.9911 130.393 40.4577C129.657 39.951 128.959 39.4177 128.302 38.8577L130.906 35.7777C131.669 36.4977 132.472 37.0977 133.313 37.5777C134.182 38.0577 135.221 38.2977 136.431 38.2977C137.509 38.2977 138.443 38.1111 139.233 37.7377C140.048 37.3644 140.68 36.8444 141.127 36.1777C141.574 35.511 141.811 34.7111 141.837 33.7777V29.5777L142.113 30.4177C141.666 31.4577 140.851 32.351 139.667 33.0977C138.483 33.8444 137.01 34.2177 135.247 34.2177C133.721 34.2177 132.314 33.831 131.025 33.0577C129.736 32.2577 128.71 31.1777 127.947 29.8177C127.184 28.4577 126.802 26.9244 126.802 25.2177C126.802 23.4577 127.197 21.8977 127.986 20.5377C128.802 19.151 129.867 18.071 131.182 17.2977C132.524 16.4977 133.945 16.0977 135.444 16.0977C136.918 16.0977 138.22 16.3644 139.351 16.8977C140.509 17.431 141.377 18.0977 141.955 18.8977L141.719 19.5377L142.192 16.8577H146.257V33.8577C146.257 35.431 145.836 36.8444 144.994 38.0977C144.178 39.3777 143.034 40.3777 141.561 41.0977C140.114 41.8444 138.43 42.2177 136.51 42.2177ZM131.261 25.0977C131.261 26.111 131.485 27.031 131.932 27.8577C132.406 28.6844 133.037 29.3377 133.826 29.8177C134.642 30.2977 135.55 30.5377 136.549 30.5377C137.417 30.5377 138.193 30.391 138.877 30.0977C139.588 29.8044 140.193 29.391 140.693 28.8577C141.219 28.3244 141.6 27.6977 141.837 26.9777V23.2977C141.6 22.5777 141.219 21.9644 140.693 21.4577C140.193 20.9244 139.588 20.511 138.877 20.2177C138.193 19.9244 137.417 19.7777 136.549 19.7777C135.55 19.7777 134.642 20.0044 133.826 20.4577C133.037 20.911 132.406 21.5377 131.932 22.3377C131.485 23.1377 131.261 24.0577 131.261 25.0977ZM155.455 16.8577L155.849 20.4977L155.692 20.0177C156.27 18.8444 157.125 17.911 158.257 17.2177C159.414 16.4977 160.782 16.1377 162.361 16.1377C163.939 16.1377 165.241 16.6044 166.267 17.5377C167.293 18.471 167.819 19.6977 167.846 21.2177V33.7777H163.426V22.8177C163.4 21.9644 163.163 21.2844 162.716 20.7777C162.269 20.2444 161.558 19.9644 160.585 19.9377C159.69 19.9377 158.888 20.2177 158.178 20.7777C157.467 21.311 156.902 22.0577 156.481 23.0177C156.086 23.951 155.889 25.031 155.889 26.2577V33.7777H151.469V16.8577H155.455Z" fill="white"/>
</svg>
