<svg width="24" height="24" viewBox="0 0 24 24" fill="none" xmlns="http://www.w3.org/2000/svg">
<mask id="mask0_13487_72817" style="mask-type:alpha" maskUnits="userSpaceOnUse" x="0" y="0" width="24" height="24">
<rect width="24" height="24" fill="white"/>
</mask>
<g mask="url(#mask0_13487_72817)">
<path d="M9.99766 19.3275V14.3275H13.9977V19.3275C13.9977 19.8775 14.4477 20.3275 14.9977 20.3275H17.9977C18.5477 20.3275 18.9977 19.8775 18.9977 19.3275V12.3275H20.6977C21.1577 12.3275 21.3777 11.7575 21.0277 11.4575L12.6677 3.92749C12.2877 3.58749 11.7077 3.58749 11.3277 3.92749L2.96766 11.4575C2.62766 11.7575 2.83766 12.3275 3.29766 12.3275H4.99766V19.3275C4.99766 19.8775 5.44766 20.3275 5.99766 20.3275H8.99766C9.54766 20.3275 9.99766 19.8775 9.99766 19.3275Z" fill="white"/>
</g>
</svg>
