<svg width="101" height="100" viewBox="0 0 101 100" fill="none" xmlns="http://www.w3.org/2000/svg">
<path d="M88.5 12C89.9311 12 91 10.8393 91 9.5C91 8.16071 89.8428 7 88.5 7C87.1572 7 86 8.16071 86 9.5C86 10.8393 87.1572 12 88.5 12Z" fill="white"/>
<path d="M75.9397 6C76.7308 6 77.3794 6.63284 77.3794 7.42389C77.3794 8.21495 76.7308 8.84779 75.9397 8.84779C75.1487 8.84779 74.5 8.21495 74.5 7.42389C74.5 6.63284 75.1487 6 75.9397 6Z" fill="white"/>
<path d="M90.4397 18C91.2308 18 91.8794 18.6328 91.8794 19.4239C91.8794 20.2149 91.2308 20.8478 90.4397 20.8478C89.6487 20.8478 89 20.2149 89 19.4239C89 18.6328 89.6487 18 90.4397 18Z" fill="white"/>
<path d="M86.9397 86C87.7308 86 88.3794 86.6328 88.3794 87.4239C88.3794 88.2149 87.7308 88.8478 86.9397 88.8478C86.1487 88.8478 85.5 88.2149 85.5 87.4239C85.5 86.6328 86.1487 86 86.9397 86Z" fill="white"/>
<path d="M10.9397 12C11.7308 12 12.3794 12.6328 12.3794 13.4239C12.3794 14.2149 11.7308 14.8478 10.9397 14.8478C10.1487 14.8478 9.5 14.2149 9.5 13.4239C9.5 12.6328 10.1487 12 10.9397 12Z" fill="white"/>
<path d="M11.5 86C13.4231 86 15 87.5556 15 89.5C15 91.4444 13.4231 93 11.5 93C9.57692 93 8 91.4444 8 89.5C8 87.5556 9.57692 86 11.5 86Z" fill="white"/>
<path d="M91.4397 53C92.2308 53 92.8794 53.6328 92.8794 54.4239C92.8794 55.2149 92.2308 55.8478 91.4397 55.8478C90.6487 55.8478 90 55.2149 90 54.4239C90 53.6328 90.6487 53 91.4397 53Z" fill="white"/>
<g clip-path="url(#clip0_1912_14893)">
<path d="M83.4838 24.0538L77.9462 18.5162C75.6962 16.2629 72.6453 15 69.462 15H23.2502C18.6931 15 15 18.6931 15 23.2502V78.7498C15 83.3069 18.6931 87 23.2502 87H78.7498C83.3069 87 87 83.3069 87 78.7498V32.538C87 29.3547 85.7371 26.3038 83.4838 24.0538ZM26.9998 33.7498V26.25C26.9998 25.008 28.0078 24 29.2498 24H60.7498C61.9918 24 62.9998 25.008 62.9998 26.25V33.7498C62.9998 34.9918 61.9918 35.9998 60.7498 35.9998H29.2498C28.0078 35.9998 26.9998 34.9918 26.9998 33.7498ZM51 75.0002C43.5452 75.0002 37.5 68.955 37.5 61.5002C37.5 54.0449 43.5452 48.0002 51 48.0002C58.4548 48.0002 64.5 54.0449 64.5 61.5002C64.5 68.955 58.4548 75.0002 51 75.0002Z" fill="white"/>
<path d="M52.9466 62.8121L53.6571 55.7067C53.8143 54.1346 52.5798 52.7705 50.9999 52.7705C49.42 52.7705 48.1855 54.1346 48.3427 55.7067L49.0532 62.8121C49.1532 63.8122 49.9948 64.5738 50.9999 64.5738C52.005 64.5738 52.8465 63.8122 52.9466 62.8121Z" fill="#FFC248"/>
<circle cx="51" cy="68.7051" r="1.77049" fill="#FFC248"/>
</g>
<defs>
<clipPath id="clip0_1912_14893">
<rect width="72" height="72" fill="white" transform="translate(15 15)"/>
</clipPath>
</defs>
</svg>
