<svg width="100" height="100" viewBox="0 0 100 100" fill="none" xmlns="http://www.w3.org/2000/svg">
<path d="M79.5497 67.4432L58.3934 25.1619C57.6128 23.6101 56.4163 22.3056 54.9374 21.3941C53.4586 20.4827 51.7556 20 50.0184 20C48.2813 20 46.5783 20.4827 45.0994 21.3941C43.6206 22.3056 42.4241 23.6101 41.6434 25.1619L20.4872 67.4432C19.7729 68.8739 19.4365 70.4635 19.5099 72.061C19.5833 73.6584 20.0641 75.2105 20.9065 76.5697C21.749 77.9289 22.9251 79.05 24.323 79.8264C25.721 80.6029 27.2943 81.0088 28.8934 81.0057H71.1434C72.7425 81.0088 74.3159 80.6029 75.7138 79.8264C77.1118 79.05 78.2879 77.9289 79.1304 76.5697C79.9728 75.2105 80.4536 73.6584 80.527 72.061C80.6004 70.4635 80.264 68.8739 79.5497 67.4432ZM52.2372 67.5994C51.6383 68.1705 50.8458 68.4942 50.0184 68.5057C49.6101 68.5007 49.2066 68.4158 48.8309 68.2557C48.4473 68.1069 48.0969 67.8839 47.7997 67.5994C47.5068 67.3089 47.2743 66.9633 47.1157 66.5825C46.957 66.2017 46.8753 65.7932 46.8753 65.3807C46.8753 64.9681 46.957 64.5597 47.1157 64.1789C47.2743 63.7981 47.5068 63.4524 47.7997 63.1619C48.0969 62.8774 48.4473 62.6544 48.8309 62.5057C49.4 62.2664 50.0273 62.201 50.6335 62.3178C51.2397 62.4346 51.7977 62.7283 52.2372 63.1619C52.5301 63.4524 52.7626 63.7981 52.9212 64.1789C53.0799 64.5597 53.1616 64.9681 53.1616 65.3807C53.1616 65.7932 53.0799 66.2017 52.9212 66.5825C52.7626 66.9633 52.5301 67.3089 52.2372 67.5994ZM53.1434 56.0057C53.1434 56.8345 52.8142 57.6293 52.2282 58.2154C51.6421 58.8014 50.8472 59.1307 50.0184 59.1307C49.1896 59.1307 48.3948 58.8014 47.8087 58.2154C47.2227 57.6293 46.8934 56.8345 46.8934 56.0057V40.3807C46.8934 39.5519 47.2227 38.757 47.8087 38.171C48.3948 37.5849 49.1896 37.2557 50.0184 37.2557C50.8472 37.2557 51.6421 37.5849 52.2282 38.171C52.8142 38.757 53.1434 39.5519 53.1434 40.3807V56.0057Z" fill="black"/>
</svg>
