<svg width="300" height="300" viewBox="0 0 300 300" fill="none" xmlns="http://www.w3.org/2000/svg">
<rect width="300" height="300" fill="#273346"/>
<g clip-path="url(#clip0_101_19)">
<path d="M122.557 180.974C115.315 180.974 108.873 176.337 106.534 169.434L106.376 168.913C105.824 167.085 105.593 165.548 105.593 164.01V133.165L94.6179 169.8C93.2064 175.188 96.4229 180.775 101.82 182.263L171.773 200.997C172.646 201.223 173.519 201.332 174.379 201.332C178.885 201.332 183.002 198.342 184.156 193.935L188.231 180.974H122.557Z" fill="#4E5A70"/>
<path d="M134.999 133.473C139.989 133.473 144.046 129.415 144.046 124.425C144.046 119.435 139.989 115.377 134.999 115.377C130.009 115.377 125.95 119.435 125.95 124.425C125.95 129.415 130.009 133.473 134.999 133.473Z" fill="#4E5A70"/>
<path d="M191.547 101.805H123.688C117.455 101.805 112.379 106.881 112.379 113.116V162.878C112.379 169.112 117.455 174.188 123.688 174.188H191.547C197.781 174.188 202.857 169.112 202.857 162.878V113.116C202.857 106.881 197.781 101.805 191.547 101.805ZM123.688 110.853H191.547C192.796 110.853 193.809 111.866 193.809 113.116V145.231L179.518 128.555C178.003 126.778 175.808 125.827 173.452 125.774C171.108 125.787 168.91 126.827 167.408 128.628L150.606 148.795L145.132 143.335C142.038 140.241 137.002 140.241 133.913 143.335L121.427 155.816V113.116C121.427 111.866 122.44 110.853 123.688 110.853Z" fill="#4E5A70"/>
</g>
<defs>
<clipPath id="clip0_101_19">
<rect width="108.571" height="108.571" fill="white" transform="translate(94.2857 97.1429)"/>
</clipPath>
</defs>
</svg>
