<svg width="18" height="18" viewBox="0 0 18 18" fill="none" xmlns="http://www.w3.org/2000/svg">
<path d="M16.6 18L10.3 11.7C9.8 12.1 9.225 12.4167 8.575 12.65C7.925 12.8833 7.23333 13 6.5 13C4.68333 13 3.14583 12.3708 1.8875 11.1125C0.629167 9.85417 0 8.31667 0 6.5C0 4.68333 0.629167 3.14583 1.8875 1.8875C3.14583 0.629167 4.68333 0 6.5 0C8.31667 0 9.85417 0.629167 11.1125 1.8875C12.3708 3.14583 13 4.68333 13 6.5C13 7.23333 12.8833 7.925 12.65 8.575C12.4167 9.225 12.1 9.8 11.7 10.3L18 16.6L16.6 18Z" fill="#00262B"/>
</svg>
