<svg width="16" height="16" viewBox="0 0 16 16" fill="none" xmlns="http://www.w3.org/2000/svg">
<g clip-path="url(#clip0_14_4)">
<path d="M1 6.86396C0.447715 6.86396 -4.82823e-08 7.31168 0 7.86396C4.82823e-08 8.41624 0.447715 8.86396 1 8.86396V6.86396ZM15.7071 8.57107C16.0976 8.18054 16.0976 7.54738 15.7071 7.15685L9.34314 0.792893C8.95262 0.402369 8.31946 0.402369 7.92893 0.792894C7.53841 1.18342 7.53841 1.81658 7.92893 2.20711L13.5858 7.86396L7.92893 13.5209C7.53841 13.9114 7.53841 14.5445 7.92893 14.9351C8.31946 15.3256 8.95262 15.3256 9.34315 14.9351L15.7071 8.57107ZM1 8.86396H15V6.86396H1V8.86396Z" fill="#3C68FF"/>
</g>
<defs>
<clipPath id="clip0_14_4">
<rect width="16" height="16" fill="white"/>
</clipPath>
</defs>
</svg>
