<svg width="24" height="24" viewBox="0 0 24 24" fill="none" xmlns="http://www.w3.org/2000/svg">
<path d="M4.4534 13.1762V15.9862C4.4534 16.7162 4.8534 17.3962 5.4934 17.7462L10.4934 20.4762C11.0934 20.8062 11.8134 20.8062 12.4134 20.4762L17.4134 17.7462C18.0534 17.3962 18.4534 16.7162 18.4534 15.9862V13.1762L12.4134 16.4762C11.8134 16.8062 11.0934 16.8062 10.4934 16.4762L4.4534 13.1762ZM10.4934 3.51625L2.0634 8.11624C1.3734 8.49624 1.3734 9.49624 2.0634 9.87625L10.4934 14.4762C11.0934 14.8062 11.8134 14.8062 12.4134 14.4762L20.4534 10.0862V15.9962C20.4534 16.5462 20.9034 16.9962 21.4534 16.9962C22.0034 16.9962 22.4534 16.5462 22.4534 15.9962V9.58625C22.4534 9.21625 22.2534 8.88624 21.9334 8.70624L12.4134 3.51625C11.8134 3.19625 11.0934 3.19625 10.4934 3.51625Z" fill="white"/>
</svg>
