<svg width="85" height="90" viewBox="0 0 85 90" fill="none" xmlns="http://www.w3.org/2000/svg">
<path d="M14.0585 29.3742V40.1009C14.0585 40.7337 14.5648 41.24 15.1977 41.24H29.8638C31.0187 41.24 31.9522 42.1734 31.9522 43.3284V60.8265C31.9522 61.9656 31.0187 62.9148 29.8638 62.9148H15.1818C14.549 62.9148 14.0427 63.4211 14.0427 64.0539V77.6126C14.0427 78.2454 14.549 78.7517 15.1818 78.7517H37.8376C38.4704 78.7517 38.9767 78.2454 38.9767 77.6126V26.5581C38.9767 25.9252 38.4704 25.4189 37.8376 25.4189H15.1818C14.549 25.4189 14.0427 25.9252 14.0427 26.5581V29.3742H14.0585Z" fill="white"/>
<path d="M27.902 43.1379H1.89223C0.848038 43.1379 0.00952148 43.9764 0.00952148 45.0206V58.864C0.00952148 60.0506 0.974606 60.9999 2.14536 60.9999H28.2026C29.2152 60.9999 30.0379 60.1772 30.0379 59.1646V45.2579C30.0379 44.0713 29.0728 43.1221 27.902 43.1221V43.1379ZM7.66691 56.1111H1.90805V47.8842H7.66691V49.4663H3.83822V51.0484H7.03407V52.6305H3.83822V54.529H7.66691V56.1111ZM16.2894 56.1111H14.2168L12.4607 53.4216L10.8628 56.1111H8.79021L11.5114 52.1559L8.63199 48.0424H10.7046L12.4607 50.8902L14.2168 48.0424H16.2894L13.41 52.1559L16.2894 56.1111ZM19.6434 56.1111H17.7291V47.8842H19.6434V56.1111ZM28.2659 49.6245H25.7029V56.1111H23.7886V49.6245H21.2255V48.0424H28.0919L28.2501 49.6245H28.2659Z" fill="white"/>
<path d="M7.03374 18.4572C8.15703 18.4572 9.10629 17.508 9.10629 16.4005C9.10629 15.293 8.14121 14.3438 7.03374 14.3438C5.92626 14.3438 4.96118 15.293 4.96118 16.4005C5.11939 17.508 5.92626 18.4572 7.03374 18.4572Z" fill="white"/>
<path d="M71.4256 9.59807C73.9886 9.59807 75.903 7.54133 75.903 5.16817C75.903 2.79502 73.8304 0.738281 71.4256 0.738281C69.0208 0.738281 66.9482 2.79502 66.9482 5.16817C66.9482 7.54133 69.0208 9.59807 71.4256 9.59807Z" fill="white"/>
<path d="M51.1274 50.7324H42.141C41.4607 50.7324 40.907 51.2862 40.907 51.9665V52.0297C40.907 52.71 41.4607 53.2638 42.141 53.2638H51.1274C52.0925 53.2638 52.4089 54.3713 51.7602 55.0041L49.1339 57.5988C48.6435 58.0892 48.6435 58.8644 49.1339 59.3549C49.6086 59.8295 50.3996 59.8295 50.8742 59.3549L57.2659 53.0265C57.7564 52.536 57.7564 51.7608 57.2659 51.2703L50.8742 44.9419C50.3996 44.4673 49.6086 44.4673 49.1339 44.9419C48.6435 45.4324 48.6435 46.2076 49.1339 46.698L51.7602 49.2927C52.0766 49.6091 52.0766 49.9255 51.9184 50.4002C51.9184 50.5584 51.602 50.7166 51.1274 50.7166V50.7324Z" fill="white"/>
<path d="M41.0649 17.2876V46.5724C41.0649 47.8222 42.0775 48.8348 43.3274 48.8348H48.8964L46.5074 46.4616C46.191 46.1452 46.191 45.5124 46.5074 45.0377L49.7032 41.8735C50.0197 41.5571 50.6683 41.5571 51.1429 41.8735L60.7305 51.3662C61.0469 51.6826 61.0469 52.3154 60.7305 52.7901L51.1429 62.2827C50.8265 62.5991 50.1779 62.5991 49.7032 62.2827L46.5074 59.1185C46.191 58.8021 46.191 58.1692 46.5074 57.6946L48.8964 55.3214H43.3274C42.0775 55.3214 41.0649 56.334 41.0649 57.5838V86.8686C41.0649 88.245 42.299 89.305 43.6596 89.1152L75.096 84.4322L77.0104 84.1157L83.0856 83.1506C84.1931 82.9766 85 82.0274 85 80.9199V23.2522C85 22.1289 84.1773 21.1796 83.0698 21.0214L43.6596 15.0569C42.2832 14.8512 41.0649 15.9112 41.0649 17.2876Z" fill="white"/>
<path d="M12.6187 1.68652C13.4097 1.68652 14.0584 2.31936 14.0584 3.11042C14.0584 3.90147 13.4097 4.53431 12.6187 4.53431C11.8276 4.53431 11.179 3.90147 11.179 3.11042C11.179 2.31936 11.8276 1.68652 12.6187 1.68652Z" fill="white"/>
<path d="M51.4436 2.63672C52.2347 2.63672 52.8833 3.26956 52.8833 4.06061C52.8833 4.85166 52.2347 5.48451 51.4436 5.48451C50.6526 5.48451 50.0039 4.85166 50.0039 4.06061C50.0039 3.26956 50.6526 2.63672 51.4436 2.63672Z" fill="white"/>
<path d="M82.4527 12.6035C83.2437 12.6035 83.8924 13.2364 83.8924 14.0274C83.8924 14.8185 83.2437 15.4513 82.4527 15.4513C81.6616 15.4513 81.0129 14.8185 81.0129 14.0274C81.0129 13.2364 81.6616 12.6035 82.4527 12.6035Z" fill="white"/>
<path d="M3.50588 31.2734C4.29693 31.2734 4.94559 31.9063 4.94559 32.6973C4.94559 33.4884 4.29693 34.1212 3.50588 34.1212C2.71482 34.1212 2.06616 33.4884 2.06616 32.6973C2.06616 31.9063 2.71482 31.2734 3.50588 31.2734Z" fill="white"/>
<path d="M5.59426 71.9326C6.38531 71.9326 7.03397 72.5655 7.03397 73.3565C7.03397 74.1476 6.38531 74.7804 5.59426 74.7804C4.8032 74.7804 4.15454 74.1476 4.15454 73.3565C4.15454 72.5655 4.8032 71.9326 5.59426 71.9326Z" fill="white"/>
<path d="M31.4773 83.7988C32.2684 83.7988 32.917 84.4317 32.917 85.2227C32.917 86.0138 32.2684 86.6466 31.4773 86.6466C30.6863 86.6466 30.0376 86.0138 30.0376 85.2227C30.0376 84.4317 30.6863 83.7988 31.4773 83.7988Z" fill="white"/>
</svg>
