<svg width="101" height="100" viewBox="0 0 101 100" fill="none" xmlns="http://www.w3.org/2000/svg">
<path fill-rule="evenodd" clip-rule="evenodd" d="M49.7725 73.8512V77.3397C49.7725 80.1372 48.3782 82.5523 45.9554 83.951C44.7898 84.6239 43.4888 84.9993 42.1399 85C40.7898 85.0007 39.4892 84.6246 38.3227 83.951L22.8112 74.9954C20.3881 73.5965 18.9941 71.182 18.9941 68.3841V22.6341C18.9941 18.4244 22.4187 15 26.6282 15H60.7902C65 15 68.4248 18.4241 68.4248 22.6341V32.2781C68.4248 33.6615 67.3016 34.7848 65.9181 34.7848C64.5343 34.7848 63.4119 33.6617 63.4119 32.2781V22.6341C63.4119 21.1886 62.2357 20.0124 60.7902 20.0124H30.8554L45.9554 28.7319C48.3774 30.1305 49.7725 32.5449 49.7725 35.3418V68.8382H60.7902C62.2356 68.8382 63.4119 67.6627 63.4119 66.2171V57.7629C63.4119 56.3785 64.5336 55.2562 65.9181 55.2562C67.3021 55.2562 68.4248 56.3788 68.4248 57.7629V66.2171C68.4248 70.427 65 73.8512 60.7902 73.8512H49.7725ZM72.9986 46.9317L70.2381 49.6922C69.2594 50.6709 69.2597 52.2577 70.2381 53.2366C70.7093 53.708 71.3442 53.97 72.0104 53.97C72.6773 53.97 73.3116 53.7087 73.7834 53.2366L80.8215 46.1972C81.8 45.2186 81.8002 43.6327 80.8215 42.6541L73.7834 35.6158C72.8045 34.6369 71.2176 34.6373 70.2383 35.6156C69.2598 36.5935 69.2601 38.1809 70.2383 39.159L72.9986 41.9188H54.5061C53.1213 41.9188 51.9999 43.041 51.9999 44.4256C51.9999 45.8103 53.1214 46.9318 54.5061 46.9318H72.9986V46.9317Z" fill="white"/>
</svg>
