<svg width="100" height="100" viewBox="0 0 100 100" fill="none" xmlns="http://www.w3.org/2000/svg">
<path fill-rule="evenodd" clip-rule="evenodd" d="M14.3267 20.7954L39.8723 46.4325C45.4438 52.0109 54.5514 52.0157 60.1276 46.4325L85.6731 20.7954C85.9304 20.5373 85.8929 20.1123 85.5945 19.9035C82.9889 18.0807 79.8188 17 76.404 17H23.596C20.181 17 17.0109 18.0808 14.4054 19.9035C14.1069 20.1123 14.0694 20.5373 14.3267 20.7954ZM7.5 33.1465C7.5 30.4527 8.16579 27.9076 9.33854 25.6705C9.52193 25.3205 9.98678 25.2497 10.2655 25.5293L35.4877 50.8309C43.4747 58.8548 56.5205 58.8594 64.5123 50.8309L89.7345 25.5293C90.0132 25.2497 90.4781 25.3205 90.6615 25.6705C91.834 27.9076 92.5 30.4529 92.5 33.1465V66.8533C92.5 75.7633 85.275 83 76.404 83H23.596C14.7252 83 7.5 75.7633 7.5 66.8533V33.1465Z" fill="white"/>
</svg>
